<?xml version="1.0" encoding="utf-8" standalone="no"?>
<!DOCTYPE svg PUBLIC "-//W3C//DTD SVG 1.1//EN"
  "http://www.w3.org/Graphics/SVG/1.1/DTD/svg11.dtd">
<svg xmlns:xlink="http://www.w3.org/1999/xlink" width="451.975706pt" height="208.8pt" viewBox="0 0 451.975706 208.8" xmlns="http://www.w3.org/2000/svg" version="1.1">
 <metadata>
  <rdf:RDF xmlns:dc="http://purl.org/dc/elements/1.1/" xmlns:cc="http://creativecommons.org/ns#" xmlns:rdf="http://www.w3.org/1999/02/22-rdf-syntax-ns#">
   <cc:Work>
    <dc:type rdf:resource="http://purl.org/dc/dcmitype/StillImage"/>
    <dc:date>2023-03-26T10:36:49.805899</dc:date>
    <dc:format>image/svg+xml</dc:format>
    <dc:creator>
     <cc:Agent>
      <dc:title>Matplotlib v3.6.1, https://matplotlib.org/</dc:title>
     </cc:Agent>
    </dc:creator>
   </cc:Work>
  </rdf:RDF>
 </metadata>
 <defs>
  <style type="text/css">*{stroke-linejoin: round; stroke-linecap: butt}</style>
 </defs>
 <g id="figure_1">
  <g id="patch_1">
   <path d="M 0 208.8 
L 451.975706 208.8 
L 451.975706 0 
L 0 0 
z
" style="fill: #ffffff"/>
  </g>
  <g id="axes_1">
   <g id="patch_2">
    <path d="M 51.4 171.24375 
L 251.498824 171.24375 
L 251.498824 22.318125 
L 51.4 22.318125 
z
" style="fill: #ffffff"/>
   </g>
   <g id="PathCollection_1">
    <defs>
     <path id="mc993917010" d="M -1.118034 1.118034 
L 1.118034 -1.118034 
M -1.118034 -1.118034 
L 1.118034 1.118034 
" style="stroke: #1f77b4"/>
    </defs>
    <g clip-path="url(#p2eef0fb92a)">
     <use xlink:href="#mc993917010" x="142.847665" y="62.487257" style="fill: #1f77b4; stroke: #1f77b4"/>
     <use xlink:href="#mc993917010" x="145.18356" y="53.851351" style="fill: #1f77b4; stroke: #1f77b4"/>
     <use xlink:href="#mc993917010" x="147.689057" y="54.750357" style="fill: #1f77b4; stroke: #1f77b4"/>
     <use xlink:href="#mc993917010" x="150.371148" y="55.700029" style="fill: #1f77b4; stroke: #1f77b4"/>
     <use xlink:href="#mc993917010" x="152.771894" y="56.644952" style="fill: #1f77b4; stroke: #1f77b4"/>
     <use xlink:href="#mc993917010" x="155.274355" y="57.662656" style="fill: #1f77b4; stroke: #1f77b4"/>
     <use xlink:href="#mc993917010" x="157.551015" y="58.710237" style="fill: #1f77b4; stroke: #1f77b4"/>
     <use xlink:href="#mc993917010" x="159.880097" y="59.609146" style="fill: #1f77b4; stroke: #1f77b4"/>
     <use xlink:href="#mc993917010" x="162.464028" y="60.868668" style="fill: #1f77b4; stroke: #1f77b4"/>
     <use xlink:href="#mc993917010" x="165.020162" y="62.104225" style="fill: #1f77b4; stroke: #1f77b4"/>
     <use xlink:href="#mc993917010" x="167.341079" y="63.148005" style="fill: #1f77b4; stroke: #1f77b4"/>
     <use xlink:href="#mc993917010" x="169.790637" y="64.493636" style="fill: #1f77b4; stroke: #1f77b4"/>
     <use xlink:href="#mc993917010" x="172.341847" y="65.751032" style="fill: #1f77b4; stroke: #1f77b4"/>
     <use xlink:href="#mc993917010" x="174.791037" y="67.114851" style="fill: #1f77b4; stroke: #1f77b4"/>
     <use xlink:href="#mc993917010" x="177.154725" y="68.375362" style="fill: #1f77b4; stroke: #1f77b4"/>
     <use xlink:href="#mc993917010" x="179.535752" y="69.658422" style="fill: #1f77b4; stroke: #1f77b4"/>
     <use xlink:href="#mc993917010" x="182.028233" y="71.070397" style="fill: #1f77b4; stroke: #1f77b4"/>
     <use xlink:href="#mc993917010" x="184.485234" y="72.546674" style="fill: #1f77b4; stroke: #1f77b4"/>
     <use xlink:href="#mc993917010" x="186.895612" y="74.001391" style="fill: #1f77b4; stroke: #1f77b4"/>
     <use xlink:href="#mc993917010" x="189.251916" y="75.396634" style="fill: #1f77b4; stroke: #1f77b4"/>
     <use xlink:href="#mc993917010" x="191.684684" y="76.763414" style="fill: #1f77b4; stroke: #1f77b4"/>
     <use xlink:href="#mc993917010" x="194.105652" y="78.281787" style="fill: #1f77b4; stroke: #1f77b4"/>
     <use xlink:href="#mc993917010" x="196.482731" y="79.773441" style="fill: #1f77b4; stroke: #1f77b4"/>
     <use xlink:href="#mc993917010" x="198.924178" y="81.397947" style="fill: #1f77b4; stroke: #1f77b4"/>
     <use xlink:href="#mc993917010" x="201.34388" y="82.662482" style="fill: #1f77b4; stroke: #1f77b4"/>
     <use xlink:href="#mc993917010" x="203.769804" y="84.100565" style="fill: #1f77b4; stroke: #1f77b4"/>
     <use xlink:href="#mc993917010" x="206.18469" y="85.83934" style="fill: #1f77b4; stroke: #1f77b4"/>
     <use xlink:href="#mc993917010" x="208.603319" y="87.283157" style="fill: #1f77b4; stroke: #1f77b4"/>
     <use xlink:href="#mc993917010" x="211.042962" y="88.878243" style="fill: #1f77b4; stroke: #1f77b4"/>
     <use xlink:href="#mc993917010" x="213.447449" y="90.14314" style="fill: #1f77b4; stroke: #1f77b4"/>
     <use xlink:href="#mc993917010" x="215.858399" y="91.647512" style="fill: #1f77b4; stroke: #1f77b4"/>
     <use xlink:href="#mc993917010" x="218.28328" y="93.105454" style="fill: #1f77b4; stroke: #1f77b4"/>
     <use xlink:href="#mc993917010" x="220.697177" y="94.625202" style="fill: #1f77b4; stroke: #1f77b4"/>
     <use xlink:href="#mc993917010" x="223.105051" y="95.828486" style="fill: #1f77b4; stroke: #1f77b4"/>
     <use xlink:href="#mc993917010" x="225.507096" y="96.997936" style="fill: #1f77b4; stroke: #1f77b4"/>
     <use xlink:href="#mc993917010" x="227.919615" y="98.295496" style="fill: #1f77b4; stroke: #1f77b4"/>
     <use xlink:href="#mc993917010" x="230.336964" y="99.343064" style="fill: #1f77b4; stroke: #1f77b4"/>
     <use xlink:href="#mc993917010" x="232.752022" y="99.950829" style="fill: #1f77b4; stroke: #1f77b4"/>
     <use xlink:href="#mc993917010" x="235.17152" y="99.517689" style="fill: #1f77b4; stroke: #1f77b4"/>
     <use xlink:href="#mc993917010" x="237.587161" y="93.761387" style="fill: #1f77b4; stroke: #1f77b4"/>
     <use xlink:href="#mc993917010" x="239.990717" y="103.441499" style="fill: #1f77b4; stroke: #1f77b4"/>
     <use xlink:href="#mc993917010" x="242.403422" y="164.474403" style="fill: #1f77b4; stroke: #1f77b4"/>
    </g>
   </g>
   <g id="PathCollection_2">
    <defs>
     <path id="m73688ae3fb" d="M -1.118034 1.118034 
L 1.118034 -1.118034 
M -1.118034 -1.118034 
L 1.118034 1.118034 
" style="stroke: #ff7f0e"/>
    </defs>
    <g clip-path="url(#p2eef0fb92a)">
     <use xlink:href="#m73688ae3fb" x="116.045485" y="44.332666" style="fill: #ff7f0e; stroke: #ff7f0e"/>
     <use xlink:href="#m73688ae3fb" x="118.709203" y="45.250991" style="fill: #ff7f0e; stroke: #ff7f0e"/>
     <use xlink:href="#m73688ae3fb" x="122.218736" y="46.423152" style="fill: #ff7f0e; stroke: #ff7f0e"/>
     <use xlink:href="#m73688ae3fb" x="125.342278" y="47.645003" style="fill: #ff7f0e; stroke: #ff7f0e"/>
     <use xlink:href="#m73688ae3fb" x="127.215871" y="48.433212" style="fill: #ff7f0e; stroke: #ff7f0e"/>
     <use xlink:href="#m73688ae3fb" x="129.775973" y="49.540111" style="fill: #ff7f0e; stroke: #ff7f0e"/>
     <use xlink:href="#m73688ae3fb" x="132.847048" y="50.817696" style="fill: #ff7f0e; stroke: #ff7f0e"/>
     <use xlink:href="#m73688ae3fb" x="135.584906" y="52.063749" style="fill: #ff7f0e; stroke: #ff7f0e"/>
     <use xlink:href="#m73688ae3fb" x="138.054871" y="53.266473" style="fill: #ff7f0e; stroke: #ff7f0e"/>
     <use xlink:href="#m73688ae3fb" x="140.30475" y="54.430067" style="fill: #ff7f0e; stroke: #ff7f0e"/>
     <use xlink:href="#m73688ae3fb" x="142.847665" y="55.644201" style="fill: #ff7f0e; stroke: #ff7f0e"/>
     <use xlink:href="#m73688ae3fb" x="145.18356" y="56.962106" style="fill: #ff7f0e; stroke: #ff7f0e"/>
     <use xlink:href="#m73688ae3fb" x="147.689057" y="58.280583" style="fill: #ff7f0e; stroke: #ff7f0e"/>
     <use xlink:href="#m73688ae3fb" x="150.371148" y="59.755908" style="fill: #ff7f0e; stroke: #ff7f0e"/>
     <use xlink:href="#m73688ae3fb" x="152.771894" y="61.128966" style="fill: #ff7f0e; stroke: #ff7f0e"/>
     <use xlink:href="#m73688ae3fb" x="155.274355" y="62.732232" style="fill: #ff7f0e; stroke: #ff7f0e"/>
     <use xlink:href="#m73688ae3fb" x="157.551015" y="63.855816" style="fill: #ff7f0e; stroke: #ff7f0e"/>
     <use xlink:href="#m73688ae3fb" x="159.880097" y="65.429904" style="fill: #ff7f0e; stroke: #ff7f0e"/>
     <use xlink:href="#m73688ae3fb" x="162.464028" y="66.945979" style="fill: #ff7f0e; stroke: #ff7f0e"/>
     <use xlink:href="#m73688ae3fb" x="165.020162" y="68.578762" style="fill: #ff7f0e; stroke: #ff7f0e"/>
     <use xlink:href="#m73688ae3fb" x="167.341079" y="70.018733" style="fill: #ff7f0e; stroke: #ff7f0e"/>
     <use xlink:href="#m73688ae3fb" x="169.790637" y="71.702761" style="fill: #ff7f0e; stroke: #ff7f0e"/>
     <use xlink:href="#m73688ae3fb" x="172.341847" y="73.334324" style="fill: #ff7f0e; stroke: #ff7f0e"/>
     <use xlink:href="#m73688ae3fb" x="174.791037" y="74.854873" style="fill: #ff7f0e; stroke: #ff7f0e"/>
     <use xlink:href="#m73688ae3fb" x="177.154725" y="76.350104" style="fill: #ff7f0e; stroke: #ff7f0e"/>
     <use xlink:href="#m73688ae3fb" x="179.535752" y="78.040895" style="fill: #ff7f0e; stroke: #ff7f0e"/>
     <use xlink:href="#m73688ae3fb" x="182.028233" y="79.702324" style="fill: #ff7f0e; stroke: #ff7f0e"/>
     <use xlink:href="#m73688ae3fb" x="184.485234" y="81.196553" style="fill: #ff7f0e; stroke: #ff7f0e"/>
     <use xlink:href="#m73688ae3fb" x="186.895612" y="82.993126" style="fill: #ff7f0e; stroke: #ff7f0e"/>
     <use xlink:href="#m73688ae3fb" x="189.251916" y="84.349036" style="fill: #ff7f0e; stroke: #ff7f0e"/>
     <use xlink:href="#m73688ae3fb" x="191.684684" y="86.228496" style="fill: #ff7f0e; stroke: #ff7f0e"/>
     <use xlink:href="#m73688ae3fb" x="194.105652" y="87.69985" style="fill: #ff7f0e; stroke: #ff7f0e"/>
     <use xlink:href="#m73688ae3fb" x="196.482731" y="89.297547" style="fill: #ff7f0e; stroke: #ff7f0e"/>
     <use xlink:href="#m73688ae3fb" x="198.924178" y="91.171331" style="fill: #ff7f0e; stroke: #ff7f0e"/>
     <use xlink:href="#m73688ae3fb" x="201.34388" y="92.700954" style="fill: #ff7f0e; stroke: #ff7f0e"/>
     <use xlink:href="#m73688ae3fb" x="203.769804" y="94.012802" style="fill: #ff7f0e; stroke: #ff7f0e"/>
     <use xlink:href="#m73688ae3fb" x="206.18469" y="95.557489" style="fill: #ff7f0e; stroke: #ff7f0e"/>
     <use xlink:href="#m73688ae3fb" x="208.603319" y="97.001857" style="fill: #ff7f0e; stroke: #ff7f0e"/>
     <use xlink:href="#m73688ae3fb" x="211.042962" y="98.354703" style="fill: #ff7f0e; stroke: #ff7f0e"/>
     <use xlink:href="#m73688ae3fb" x="213.447449" y="100.036458" style="fill: #ff7f0e; stroke: #ff7f0e"/>
     <use xlink:href="#m73688ae3fb" x="215.858399" y="100.969439" style="fill: #ff7f0e; stroke: #ff7f0e"/>
     <use xlink:href="#m73688ae3fb" x="218.28328" y="102.240301" style="fill: #ff7f0e; stroke: #ff7f0e"/>
     <use xlink:href="#m73688ae3fb" x="220.697177" y="101.971922" style="fill: #ff7f0e; stroke: #ff7f0e"/>
     <use xlink:href="#m73688ae3fb" x="223.105051" y="99.189796" style="fill: #ff7f0e; stroke: #ff7f0e"/>
     <use xlink:href="#m73688ae3fb" x="225.507096" y="101.974985" style="fill: #ff7f0e; stroke: #ff7f0e"/>
     <use xlink:href="#m73688ae3fb" x="227.919615" y="122.026718" style="fill: #ff7f0e; stroke: #ff7f0e"/>
    </g>
   </g>
   <g id="PathCollection_3">
    <defs>
     <path id="mb7207fe3a1" d="M -1.118034 1.118034 
L 1.118034 -1.118034 
M -1.118034 -1.118034 
L 1.118034 1.118034 
" style="stroke: #2ca02c"/>
    </defs>
    <g clip-path="url(#p2eef0fb92a)">
     <use xlink:href="#mb7207fe3a1" x="88.270443" y="36.053493" style="fill: #2ca02c; stroke: #2ca02c"/>
     <use xlink:href="#mb7207fe3a1" x="95.543602" y="38.418721" style="fill: #2ca02c; stroke: #2ca02c"/>
     <use xlink:href="#mb7207fe3a1" x="101.185102" y="40.599627" style="fill: #2ca02c; stroke: #2ca02c"/>
     <use xlink:href="#mb7207fe3a1" x="105.794543" y="42.517395" style="fill: #2ca02c; stroke: #2ca02c"/>
     <use xlink:href="#mb7207fe3a1" x="109.691771" y="44.324063" style="fill: #2ca02c; stroke: #2ca02c"/>
     <use xlink:href="#mb7207fe3a1" x="113.067702" y="45.891611" style="fill: #2ca02c; stroke: #2ca02c"/>
     <use xlink:href="#mb7207fe3a1" x="116.045485" y="47.441073" style="fill: #2ca02c; stroke: #2ca02c"/>
     <use xlink:href="#mb7207fe3a1" x="118.709203" y="48.772837" style="fill: #2ca02c; stroke: #2ca02c"/>
     <use xlink:href="#mb7207fe3a1" x="122.218736" y="50.652938" style="fill: #2ca02c; stroke: #2ca02c"/>
     <use xlink:href="#mb7207fe3a1" x="125.342278" y="52.473021" style="fill: #2ca02c; stroke: #2ca02c"/>
     <use xlink:href="#mb7207fe3a1" x="127.215871" y="53.5465" style="fill: #2ca02c; stroke: #2ca02c"/>
     <use xlink:href="#mb7207fe3a1" x="129.775973" y="55.15242" style="fill: #2ca02c; stroke: #2ca02c"/>
     <use xlink:href="#mb7207fe3a1" x="132.847048" y="56.877744" style="fill: #2ca02c; stroke: #2ca02c"/>
     <use xlink:href="#mb7207fe3a1" x="135.584906" y="58.663723" style="fill: #2ca02c; stroke: #2ca02c"/>
     <use xlink:href="#mb7207fe3a1" x="138.054871" y="60.26006" style="fill: #2ca02c; stroke: #2ca02c"/>
     <use xlink:href="#mb7207fe3a1" x="140.30475" y="61.669325" style="fill: #2ca02c; stroke: #2ca02c"/>
     <use xlink:href="#mb7207fe3a1" x="142.847665" y="63.219426" style="fill: #2ca02c; stroke: #2ca02c"/>
     <use xlink:href="#mb7207fe3a1" x="145.18356" y="64.814723" style="fill: #2ca02c; stroke: #2ca02c"/>
     <use xlink:href="#mb7207fe3a1" x="147.689057" y="66.5336" style="fill: #2ca02c; stroke: #2ca02c"/>
     <use xlink:href="#mb7207fe3a1" x="150.371148" y="68.197954" style="fill: #2ca02c; stroke: #2ca02c"/>
     <use xlink:href="#mb7207fe3a1" x="152.771894" y="69.915121" style="fill: #2ca02c; stroke: #2ca02c"/>
     <use xlink:href="#mb7207fe3a1" x="155.274355" y="71.748313" style="fill: #2ca02c; stroke: #2ca02c"/>
     <use xlink:href="#mb7207fe3a1" x="157.551015" y="73.449109" style="fill: #2ca02c; stroke: #2ca02c"/>
     <use xlink:href="#mb7207fe3a1" x="159.880097" y="74.735148" style="fill: #2ca02c; stroke: #2ca02c"/>
     <use xlink:href="#mb7207fe3a1" x="162.464028" y="76.628241" style="fill: #2ca02c; stroke: #2ca02c"/>
     <use xlink:href="#mb7207fe3a1" x="165.020162" y="78.408213" style="fill: #2ca02c; stroke: #2ca02c"/>
     <use xlink:href="#mb7207fe3a1" x="167.341079" y="80.092525" style="fill: #2ca02c; stroke: #2ca02c"/>
     <use xlink:href="#mb7207fe3a1" x="169.790637" y="81.538026" style="fill: #2ca02c; stroke: #2ca02c"/>
     <use xlink:href="#mb7207fe3a1" x="172.341847" y="83.572417" style="fill: #2ca02c; stroke: #2ca02c"/>
     <use xlink:href="#mb7207fe3a1" x="174.791037" y="85.461057" style="fill: #2ca02c; stroke: #2ca02c"/>
     <use xlink:href="#mb7207fe3a1" x="177.154725" y="86.890718" style="fill: #2ca02c; stroke: #2ca02c"/>
     <use xlink:href="#mb7207fe3a1" x="179.535752" y="88.71704" style="fill: #2ca02c; stroke: #2ca02c"/>
     <use xlink:href="#mb7207fe3a1" x="182.028233" y="90.360747" style="fill: #2ca02c; stroke: #2ca02c"/>
     <use xlink:href="#mb7207fe3a1" x="184.485234" y="92.101813" style="fill: #2ca02c; stroke: #2ca02c"/>
     <use xlink:href="#mb7207fe3a1" x="186.895612" y="93.857186" style="fill: #2ca02c; stroke: #2ca02c"/>
     <use xlink:href="#mb7207fe3a1" x="189.251916" y="95.192604" style="fill: #2ca02c; stroke: #2ca02c"/>
     <use xlink:href="#mb7207fe3a1" x="191.684684" y="97.104977" style="fill: #2ca02c; stroke: #2ca02c"/>
     <use xlink:href="#mb7207fe3a1" x="194.105652" y="99.048587" style="fill: #2ca02c; stroke: #2ca02c"/>
     <use xlink:href="#mb7207fe3a1" x="196.482731" y="100.206612" style="fill: #2ca02c; stroke: #2ca02c"/>
     <use xlink:href="#mb7207fe3a1" x="198.924178" y="101.237119" style="fill: #2ca02c; stroke: #2ca02c"/>
     <use xlink:href="#mb7207fe3a1" x="201.34388" y="103.006208" style="fill: #2ca02c; stroke: #2ca02c"/>
     <use xlink:href="#mb7207fe3a1" x="203.769804" y="104.07839" style="fill: #2ca02c; stroke: #2ca02c"/>
     <use xlink:href="#mb7207fe3a1" x="206.18469" y="104.372489" style="fill: #2ca02c; stroke: #2ca02c"/>
     <use xlink:href="#mb7207fe3a1" x="208.603319" y="103.87863" style="fill: #2ca02c; stroke: #2ca02c"/>
     <use xlink:href="#mb7207fe3a1" x="211.042962" y="105.129012" style="fill: #2ca02c; stroke: #2ca02c"/>
     <use xlink:href="#mb7207fe3a1" x="213.447449" y="112.304886" style="fill: #2ca02c; stroke: #2ca02c"/>
     <use xlink:href="#mb7207fe3a1" x="215.858399" y="128.730973" style="fill: #2ca02c; stroke: #2ca02c"/>
     <use xlink:href="#mb7207fe3a1" x="218.28328" y="153.131469" style="fill: #2ca02c; stroke: #2ca02c"/>
    </g>
   </g>
   <g id="PathCollection_4">
    <defs>
     <path id="mb39a11ce86" d="M -1.118034 1.118034 
L 1.118034 -1.118034 
M -1.118034 -1.118034 
L 1.118034 1.118034 
" style="stroke: #d62728"/>
    </defs>
    <g clip-path="url(#p2eef0fb92a)">
     <use xlink:href="#mb39a11ce86" x="60.495401" y="29.233962" style="fill: #d62728; stroke: #d62728"/>
     <use xlink:href="#mb39a11ce86" x="78.019501" y="34.942777" style="fill: #d62728; stroke: #d62728"/>
     <use xlink:href="#mb39a11ce86" x="88.270443" y="39.430868" style="fill: #d62728; stroke: #d62728"/>
     <use xlink:href="#mb39a11ce86" x="95.543602" y="43.144933" style="fill: #d62728; stroke: #d62728"/>
     <use xlink:href="#mb39a11ce86" x="101.185102" y="46.139658" style="fill: #d62728; stroke: #d62728"/>
     <use xlink:href="#mb39a11ce86" x="105.794543" y="48.78493" style="fill: #d62728; stroke: #d62728"/>
     <use xlink:href="#mb39a11ce86" x="109.691771" y="51.247992" style="fill: #d62728; stroke: #d62728"/>
     <use xlink:href="#mb39a11ce86" x="113.067702" y="53.320171" style="fill: #d62728; stroke: #d62728"/>
     <use xlink:href="#mb39a11ce86" x="116.045485" y="54.989803" style="fill: #d62728; stroke: #d62728"/>
     <use xlink:href="#mb39a11ce86" x="118.709203" y="56.773716" style="fill: #d62728; stroke: #d62728"/>
     <use xlink:href="#mb39a11ce86" x="122.218736" y="59.110929" style="fill: #d62728; stroke: #d62728"/>
     <use xlink:href="#mb39a11ce86" x="125.342278" y="61.337413" style="fill: #d62728; stroke: #d62728"/>
     <use xlink:href="#mb39a11ce86" x="127.215871" y="62.790003" style="fill: #d62728; stroke: #d62728"/>
     <use xlink:href="#mb39a11ce86" x="129.775973" y="64.205744" style="fill: #d62728; stroke: #d62728"/>
     <use xlink:href="#mb39a11ce86" x="132.847048" y="66.47799" style="fill: #d62728; stroke: #d62728"/>
     <use xlink:href="#mb39a11ce86" x="135.584906" y="68.462971" style="fill: #d62728; stroke: #d62728"/>
     <use xlink:href="#mb39a11ce86" x="138.054871" y="70.083736" style="fill: #d62728; stroke: #d62728"/>
     <use xlink:href="#mb39a11ce86" x="140.30475" y="71.768114" style="fill: #d62728; stroke: #d62728"/>
     <use xlink:href="#mb39a11ce86" x="142.847665" y="73.709749" style="fill: #d62728; stroke: #d62728"/>
     <use xlink:href="#mb39a11ce86" x="145.18356" y="75.294971" style="fill: #d62728; stroke: #d62728"/>
     <use xlink:href="#mb39a11ce86" x="147.689057" y="76.954314" style="fill: #d62728; stroke: #d62728"/>
     <use xlink:href="#mb39a11ce86" x="150.371148" y="78.944532" style="fill: #d62728; stroke: #d62728"/>
     <use xlink:href="#mb39a11ce86" x="152.771894" y="80.801824" style="fill: #d62728; stroke: #d62728"/>
     <use xlink:href="#mb39a11ce86" x="155.274355" y="82.481936" style="fill: #d62728; stroke: #d62728"/>
     <use xlink:href="#mb39a11ce86" x="157.551015" y="83.972964" style="fill: #d62728; stroke: #d62728"/>
     <use xlink:href="#mb39a11ce86" x="159.880097" y="85.814033" style="fill: #d62728; stroke: #d62728"/>
     <use xlink:href="#mb39a11ce86" x="162.464028" y="87.603287" style="fill: #d62728; stroke: #d62728"/>
     <use xlink:href="#mb39a11ce86" x="165.020162" y="89.757463" style="fill: #d62728; stroke: #d62728"/>
     <use xlink:href="#mb39a11ce86" x="167.341079" y="91.159455" style="fill: #d62728; stroke: #d62728"/>
     <use xlink:href="#mb39a11ce86" x="169.790637" y="92.667922" style="fill: #d62728; stroke: #d62728"/>
     <use xlink:href="#mb39a11ce86" x="172.341847" y="94.622736" style="fill: #d62728; stroke: #d62728"/>
     <use xlink:href="#mb39a11ce86" x="174.791037" y="96.589461" style="fill: #d62728; stroke: #d62728"/>
     <use xlink:href="#mb39a11ce86" x="177.154725" y="97.924123" style="fill: #d62728; stroke: #d62728"/>
     <use xlink:href="#mb39a11ce86" x="179.535752" y="99.483919" style="fill: #d62728; stroke: #d62728"/>
     <use xlink:href="#mb39a11ce86" x="182.028233" y="101.845476" style="fill: #d62728; stroke: #d62728"/>
     <use xlink:href="#mb39a11ce86" x="184.485234" y="102.895552" style="fill: #d62728; stroke: #d62728"/>
     <use xlink:href="#mb39a11ce86" x="186.895612" y="104.298998" style="fill: #d62728; stroke: #d62728"/>
     <use xlink:href="#mb39a11ce86" x="189.251916" y="105.772764" style="fill: #d62728; stroke: #d62728"/>
     <use xlink:href="#mb39a11ce86" x="191.684684" y="105.950841" style="fill: #d62728; stroke: #d62728"/>
     <use xlink:href="#mb39a11ce86" x="194.105652" y="107.454876" style="fill: #d62728; stroke: #d62728"/>
     <use xlink:href="#mb39a11ce86" x="196.482731" y="108.843784" style="fill: #d62728; stroke: #d62728"/>
     <use xlink:href="#mb39a11ce86" x="198.924178" y="112.593102" style="fill: #d62728; stroke: #d62728"/>
     <use xlink:href="#mb39a11ce86" x="201.34388" y="118.585432" style="fill: #d62728; stroke: #d62728"/>
     <use xlink:href="#mb39a11ce86" x="203.769804" y="130.081483" style="fill: #d62728; stroke: #d62728"/>
     <use xlink:href="#mb39a11ce86" x="206.18469" y="140.909979" style="fill: #d62728; stroke: #d62728"/>
    </g>
   </g>
   <g id="matplotlib.axis_1">
    <g id="xtick_1">
     <g id="line2d_1">
      <defs>
       <path id="maafe4d8b64" d="M 0 0 
L 0 3.5 
" style="stroke: #000000; stroke-width: 0.8"/>
      </defs>
      <g>
       <use xlink:href="#maafe4d8b64" x="60.495401" y="171.24375" style="stroke: #000000; stroke-width: 0.8"/>
      </g>
     </g>
     <g id="text_1">
      <!-- $\mathdefault{10^{0}}$ -->
      <g transform="translate(51.695401 185.842187) scale(0.1 -0.1)">
       <defs>
        <path id="DejaVuSans-31" d="M 794 531 
L 1825 531 
L 1825 4091 
L 703 3866 
L 703 4441 
L 1819 4666 
L 2450 4666 
L 2450 531 
L 3481 531 
L 3481 0 
L 794 0 
L 794 531 
z
" transform="scale(0.015625)"/>
        <path id="DejaVuSans-30" d="M 2034 4250 
Q 1547 4250 1301 3770 
Q 1056 3291 1056 2328 
Q 1056 1369 1301 889 
Q 1547 409 2034 409 
Q 2525 409 2770 889 
Q 3016 1369 3016 2328 
Q 3016 3291 2770 3770 
Q 2525 4250 2034 4250 
z
M 2034 4750 
Q 2819 4750 3233 4129 
Q 3647 3509 3647 2328 
Q 3647 1150 3233 529 
Q 2819 -91 2034 -91 
Q 1250 -91 836 529 
Q 422 1150 422 2328 
Q 422 3509 836 4129 
Q 1250 4750 2034 4750 
z
" transform="scale(0.015625)"/>
       </defs>
       <use xlink:href="#DejaVuSans-31" transform="translate(0 0.765625)"/>
       <use xlink:href="#DejaVuSans-30" transform="translate(63.623047 0.765625)"/>
       <use xlink:href="#DejaVuSans-30" transform="translate(128.203125 39.046875) scale(0.7)"/>
      </g>
     </g>
    </g>
    <g id="xtick_2">
     <g id="line2d_2">
      <g>
       <use xlink:href="#maafe4d8b64" x="118.709203" y="171.24375" style="stroke: #000000; stroke-width: 0.8"/>
      </g>
     </g>
     <g id="text_2">
      <!-- $\mathdefault{10^{1}}$ -->
      <g transform="translate(109.909203 185.842187) scale(0.1 -0.1)">
       <use xlink:href="#DejaVuSans-31" transform="translate(0 0.684375)"/>
       <use xlink:href="#DejaVuSans-30" transform="translate(63.623047 0.684375)"/>
       <use xlink:href="#DejaVuSans-31" transform="translate(128.203125 38.965625) scale(0.7)"/>
      </g>
     </g>
    </g>
    <g id="xtick_3">
     <g id="line2d_3">
      <g>
       <use xlink:href="#maafe4d8b64" x="176.923004" y="171.24375" style="stroke: #000000; stroke-width: 0.8"/>
      </g>
     </g>
     <g id="text_3">
      <!-- $\mathdefault{10^{2}}$ -->
      <g transform="translate(168.123004 185.842187) scale(0.1 -0.1)">
       <defs>
        <path id="DejaVuSans-32" d="M 1228 531 
L 3431 531 
L 3431 0 
L 469 0 
L 469 531 
Q 828 903 1448 1529 
Q 2069 2156 2228 2338 
Q 2531 2678 2651 2914 
Q 2772 3150 2772 3378 
Q 2772 3750 2511 3984 
Q 2250 4219 1831 4219 
Q 1534 4219 1204 4116 
Q 875 4013 500 3803 
L 500 4441 
Q 881 4594 1212 4672 
Q 1544 4750 1819 4750 
Q 2544 4750 2975 4387 
Q 3406 4025 3406 3419 
Q 3406 3131 3298 2873 
Q 3191 2616 2906 2266 
Q 2828 2175 2409 1742 
Q 1991 1309 1228 531 
z
" transform="scale(0.015625)"/>
       </defs>
       <use xlink:href="#DejaVuSans-31" transform="translate(0 0.765625)"/>
       <use xlink:href="#DejaVuSans-30" transform="translate(63.623047 0.765625)"/>
       <use xlink:href="#DejaVuSans-32" transform="translate(128.203125 39.046875) scale(0.7)"/>
      </g>
     </g>
    </g>
    <g id="xtick_4">
     <g id="line2d_4">
      <g>
       <use xlink:href="#maafe4d8b64" x="235.136805" y="171.24375" style="stroke: #000000; stroke-width: 0.8"/>
      </g>
     </g>
     <g id="text_4">
      <!-- $\mathdefault{10^{3}}$ -->
      <g transform="translate(226.336805 185.842187) scale(0.1 -0.1)">
       <defs>
        <path id="DejaVuSans-33" d="M 2597 2516 
Q 3050 2419 3304 2112 
Q 3559 1806 3559 1356 
Q 3559 666 3084 287 
Q 2609 -91 1734 -91 
Q 1441 -91 1130 -33 
Q 819 25 488 141 
L 488 750 
Q 750 597 1062 519 
Q 1375 441 1716 441 
Q 2309 441 2620 675 
Q 2931 909 2931 1356 
Q 2931 1769 2642 2001 
Q 2353 2234 1838 2234 
L 1294 2234 
L 1294 2753 
L 1863 2753 
Q 2328 2753 2575 2939 
Q 2822 3125 2822 3475 
Q 2822 3834 2567 4026 
Q 2313 4219 1838 4219 
Q 1578 4219 1281 4162 
Q 984 4106 628 3988 
L 628 4550 
Q 988 4650 1302 4700 
Q 1616 4750 1894 4750 
Q 2613 4750 3031 4423 
Q 3450 4097 3450 3541 
Q 3450 3153 3228 2886 
Q 3006 2619 2597 2516 
z
" transform="scale(0.015625)"/>
       </defs>
       <use xlink:href="#DejaVuSans-31" transform="translate(0 0.765625)"/>
       <use xlink:href="#DejaVuSans-30" transform="translate(63.623047 0.765625)"/>
       <use xlink:href="#DejaVuSans-33" transform="translate(128.203125 39.046875) scale(0.7)"/>
      </g>
     </g>
    </g>
    <g id="xtick_5">
     <g id="line2d_5">
      <defs>
       <path id="mb8eb8b3340" d="M 0 0 
L 0 2 
" style="stroke: #000000; stroke-width: 0.6"/>
      </defs>
      <g>
       <use xlink:href="#mb8eb8b3340" x="51.477969" y="171.24375" style="stroke: #000000; stroke-width: 0.6"/>
      </g>
     </g>
    </g>
    <g id="xtick_6">
     <g id="line2d_6">
      <g>
       <use xlink:href="#mb8eb8b3340" x="54.853901" y="171.24375" style="stroke: #000000; stroke-width: 0.6"/>
      </g>
     </g>
    </g>
    <g id="xtick_7">
     <g id="line2d_7">
      <g>
       <use xlink:href="#mb8eb8b3340" x="57.831684" y="171.24375" style="stroke: #000000; stroke-width: 0.6"/>
      </g>
     </g>
    </g>
    <g id="xtick_8">
     <g id="line2d_8">
      <g>
       <use xlink:href="#mb8eb8b3340" x="78.019501" y="171.24375" style="stroke: #000000; stroke-width: 0.6"/>
      </g>
     </g>
    </g>
    <g id="xtick_9">
     <g id="line2d_9">
      <g>
       <use xlink:href="#mb8eb8b3340" x="88.270443" y="171.24375" style="stroke: #000000; stroke-width: 0.6"/>
      </g>
     </g>
    </g>
    <g id="xtick_10">
     <g id="line2d_10">
      <g>
       <use xlink:href="#mb8eb8b3340" x="95.543602" y="171.24375" style="stroke: #000000; stroke-width: 0.6"/>
      </g>
     </g>
    </g>
    <g id="xtick_11">
     <g id="line2d_11">
      <g>
       <use xlink:href="#mb8eb8b3340" x="101.185102" y="171.24375" style="stroke: #000000; stroke-width: 0.6"/>
      </g>
     </g>
    </g>
    <g id="xtick_12">
     <g id="line2d_12">
      <g>
       <use xlink:href="#mb8eb8b3340" x="105.794543" y="171.24375" style="stroke: #000000; stroke-width: 0.6"/>
      </g>
     </g>
    </g>
    <g id="xtick_13">
     <g id="line2d_13">
      <g>
       <use xlink:href="#mb8eb8b3340" x="109.691771" y="171.24375" style="stroke: #000000; stroke-width: 0.6"/>
      </g>
     </g>
    </g>
    <g id="xtick_14">
     <g id="line2d_14">
      <g>
       <use xlink:href="#mb8eb8b3340" x="113.067702" y="171.24375" style="stroke: #000000; stroke-width: 0.6"/>
      </g>
     </g>
    </g>
    <g id="xtick_15">
     <g id="line2d_15">
      <g>
       <use xlink:href="#mb8eb8b3340" x="116.045485" y="171.24375" style="stroke: #000000; stroke-width: 0.6"/>
      </g>
     </g>
    </g>
    <g id="xtick_16">
     <g id="line2d_16">
      <g>
       <use xlink:href="#mb8eb8b3340" x="136.233303" y="171.24375" style="stroke: #000000; stroke-width: 0.6"/>
      </g>
     </g>
    </g>
    <g id="xtick_17">
     <g id="line2d_17">
      <g>
       <use xlink:href="#mb8eb8b3340" x="146.484245" y="171.24375" style="stroke: #000000; stroke-width: 0.6"/>
      </g>
     </g>
    </g>
    <g id="xtick_18">
     <g id="line2d_18">
      <g>
       <use xlink:href="#mb8eb8b3340" x="153.757403" y="171.24375" style="stroke: #000000; stroke-width: 0.6"/>
      </g>
     </g>
    </g>
    <g id="xtick_19">
     <g id="line2d_19">
      <g>
       <use xlink:href="#mb8eb8b3340" x="159.398904" y="171.24375" style="stroke: #000000; stroke-width: 0.6"/>
      </g>
     </g>
    </g>
    <g id="xtick_20">
     <g id="line2d_20">
      <g>
       <use xlink:href="#mb8eb8b3340" x="164.008345" y="171.24375" style="stroke: #000000; stroke-width: 0.6"/>
      </g>
     </g>
    </g>
    <g id="xtick_21">
     <g id="line2d_21">
      <g>
       <use xlink:href="#mb8eb8b3340" x="167.905572" y="171.24375" style="stroke: #000000; stroke-width: 0.6"/>
      </g>
     </g>
    </g>
    <g id="xtick_22">
     <g id="line2d_22">
      <g>
       <use xlink:href="#mb8eb8b3340" x="171.281504" y="171.24375" style="stroke: #000000; stroke-width: 0.6"/>
      </g>
     </g>
    </g>
    <g id="xtick_23">
     <g id="line2d_23">
      <g>
       <use xlink:href="#mb8eb8b3340" x="174.259287" y="171.24375" style="stroke: #000000; stroke-width: 0.6"/>
      </g>
     </g>
    </g>
    <g id="xtick_24">
     <g id="line2d_24">
      <g>
       <use xlink:href="#mb8eb8b3340" x="194.447104" y="171.24375" style="stroke: #000000; stroke-width: 0.6"/>
      </g>
     </g>
    </g>
    <g id="xtick_25">
     <g id="line2d_25">
      <g>
       <use xlink:href="#mb8eb8b3340" x="204.698046" y="171.24375" style="stroke: #000000; stroke-width: 0.6"/>
      </g>
     </g>
    </g>
    <g id="xtick_26">
     <g id="line2d_26">
      <g>
       <use xlink:href="#mb8eb8b3340" x="211.971205" y="171.24375" style="stroke: #000000; stroke-width: 0.6"/>
      </g>
     </g>
    </g>
    <g id="xtick_27">
     <g id="line2d_27">
      <g>
       <use xlink:href="#mb8eb8b3340" x="217.612705" y="171.24375" style="stroke: #000000; stroke-width: 0.6"/>
      </g>
     </g>
    </g>
    <g id="xtick_28">
     <g id="line2d_28">
      <g>
       <use xlink:href="#mb8eb8b3340" x="222.222146" y="171.24375" style="stroke: #000000; stroke-width: 0.6"/>
      </g>
     </g>
    </g>
    <g id="xtick_29">
     <g id="line2d_29">
      <g>
       <use xlink:href="#mb8eb8b3340" x="226.119374" y="171.24375" style="stroke: #000000; stroke-width: 0.6"/>
      </g>
     </g>
    </g>
    <g id="xtick_30">
     <g id="line2d_30">
      <g>
       <use xlink:href="#mb8eb8b3340" x="229.495305" y="171.24375" style="stroke: #000000; stroke-width: 0.6"/>
      </g>
     </g>
    </g>
    <g id="xtick_31">
     <g id="line2d_31">
      <g>
       <use xlink:href="#mb8eb8b3340" x="232.473088" y="171.24375" style="stroke: #000000; stroke-width: 0.6"/>
      </g>
     </g>
    </g>
    <g id="text_5">
     <!-- $k$ -->
     <g transform="translate(148.549412 199.520312) scale(0.1 -0.1)">
      <defs>
       <path id="DejaVuSans-Oblique-6b" d="M 1172 4863 
L 1747 4863 
L 1197 2028 
L 3169 3500 
L 3916 3500 
L 1716 1825 
L 3322 0 
L 2625 0 
L 1131 1709 
L 800 0 
L 225 0 
L 1172 4863 
z
" transform="scale(0.015625)"/>
      </defs>
      <use xlink:href="#DejaVuSans-Oblique-6b" transform="translate(0 0.015625)"/>
     </g>
    </g>
   </g>
   <g id="matplotlib.axis_2">
    <g id="ytick_1">
     <g id="line2d_32">
      <defs>
       <path id="m2909de622e" d="M 0 0 
L -3.5 0 
" style="stroke: #000000; stroke-width: 0.8"/>
      </defs>
      <g>
       <use xlink:href="#m2909de622e" x="51.4" y="135.688922" style="stroke: #000000; stroke-width: 0.8"/>
      </g>
     </g>
     <g id="text_6">
      <!-- $\mathdefault{10^{-6}}$ -->
      <g transform="translate(20.9 139.488141) scale(0.1 -0.1)">
       <defs>
        <path id="DejaVuSans-2212" d="M 678 2272 
L 4684 2272 
L 4684 1741 
L 678 1741 
L 678 2272 
z
" transform="scale(0.015625)"/>
        <path id="DejaVuSans-36" d="M 2113 2584 
Q 1688 2584 1439 2293 
Q 1191 2003 1191 1497 
Q 1191 994 1439 701 
Q 1688 409 2113 409 
Q 2538 409 2786 701 
Q 3034 994 3034 1497 
Q 3034 2003 2786 2293 
Q 2538 2584 2113 2584 
z
M 3366 4563 
L 3366 3988 
Q 3128 4100 2886 4159 
Q 2644 4219 2406 4219 
Q 1781 4219 1451 3797 
Q 1122 3375 1075 2522 
Q 1259 2794 1537 2939 
Q 1816 3084 2150 3084 
Q 2853 3084 3261 2657 
Q 3669 2231 3669 1497 
Q 3669 778 3244 343 
Q 2819 -91 2113 -91 
Q 1303 -91 875 529 
Q 447 1150 447 2328 
Q 447 3434 972 4092 
Q 1497 4750 2381 4750 
Q 2619 4750 2861 4703 
Q 3103 4656 3366 4563 
z
" transform="scale(0.015625)"/>
       </defs>
       <use xlink:href="#DejaVuSans-31" transform="translate(0 0.765625)"/>
       <use xlink:href="#DejaVuSans-30" transform="translate(63.623047 0.765625)"/>
       <use xlink:href="#DejaVuSans-2212" transform="translate(128.203125 39.046875) scale(0.7)"/>
       <use xlink:href="#DejaVuSans-36" transform="translate(186.855469 39.046875) scale(0.7)"/>
      </g>
     </g>
    </g>
    <g id="ytick_2">
     <g id="line2d_33">
      <g>
       <use xlink:href="#m2909de622e" x="51.4" y="97.439603" style="stroke: #000000; stroke-width: 0.8"/>
      </g>
     </g>
     <g id="text_7">
      <!-- $\mathdefault{10^{-4}}$ -->
      <g transform="translate(20.9 101.238822) scale(0.1 -0.1)">
       <defs>
        <path id="DejaVuSans-34" d="M 2419 4116 
L 825 1625 
L 2419 1625 
L 2419 4116 
z
M 2253 4666 
L 3047 4666 
L 3047 1625 
L 3713 1625 
L 3713 1100 
L 3047 1100 
L 3047 0 
L 2419 0 
L 2419 1100 
L 313 1100 
L 313 1709 
L 2253 4666 
z
" transform="scale(0.015625)"/>
       </defs>
       <use xlink:href="#DejaVuSans-31" transform="translate(0 0.684375)"/>
       <use xlink:href="#DejaVuSans-30" transform="translate(63.623047 0.684375)"/>
       <use xlink:href="#DejaVuSans-2212" transform="translate(128.203125 38.965625) scale(0.7)"/>
       <use xlink:href="#DejaVuSans-34" transform="translate(186.855469 38.965625) scale(0.7)"/>
      </g>
     </g>
    </g>
    <g id="ytick_3">
     <g id="line2d_34">
      <g>
       <use xlink:href="#m2909de622e" x="51.4" y="59.190284" style="stroke: #000000; stroke-width: 0.8"/>
      </g>
     </g>
     <g id="text_8">
      <!-- $\mathdefault{10^{-2}}$ -->
      <g transform="translate(20.9 62.989503) scale(0.1 -0.1)">
       <use xlink:href="#DejaVuSans-31" transform="translate(0 0.765625)"/>
       <use xlink:href="#DejaVuSans-30" transform="translate(63.623047 0.765625)"/>
       <use xlink:href="#DejaVuSans-2212" transform="translate(128.203125 39.046875) scale(0.7)"/>
       <use xlink:href="#DejaVuSans-32" transform="translate(186.855469 39.046875) scale(0.7)"/>
      </g>
     </g>
    </g>
    <g id="text_9">
     <!-- $p(k)$ -->
     <g transform="translate(14.8 106.780937) rotate(-90) scale(0.1 -0.1)">
      <defs>
       <path id="DejaVuSans-Oblique-70" d="M 3175 2156 
Q 3175 2616 2975 2859 
Q 2775 3103 2400 3103 
Q 2144 3103 1911 2972 
Q 1678 2841 1497 2591 
Q 1319 2344 1212 1994 
Q 1106 1644 1106 1300 
Q 1106 863 1306 627 
Q 1506 391 1875 391 
Q 2147 391 2380 519 
Q 2613 647 2778 891 
Q 2956 1147 3065 1494 
Q 3175 1841 3175 2156 
z
M 1394 2969 
Q 1625 3272 1939 3428 
Q 2253 3584 2638 3584 
Q 3175 3584 3472 3232 
Q 3769 2881 3769 2247 
Q 3769 1728 3584 1258 
Q 3400 788 3053 416 
Q 2822 169 2531 39 
Q 2241 -91 1919 -91 
Q 1547 -91 1294 64 
Q 1041 219 916 525 
L 556 -1331 
L -19 -1331 
L 922 3500 
L 1497 3500 
L 1394 2969 
z
" transform="scale(0.015625)"/>
       <path id="DejaVuSans-28" d="M 1984 4856 
Q 1566 4138 1362 3434 
Q 1159 2731 1159 2009 
Q 1159 1288 1364 580 
Q 1569 -128 1984 -844 
L 1484 -844 
Q 1016 -109 783 600 
Q 550 1309 550 2009 
Q 550 2706 781 3412 
Q 1013 4119 1484 4856 
L 1984 4856 
z
" transform="scale(0.015625)"/>
       <path id="DejaVuSans-29" d="M 513 4856 
L 1013 4856 
Q 1481 4119 1714 3412 
Q 1947 2706 1947 2009 
Q 1947 1309 1714 600 
Q 1481 -109 1013 -844 
L 513 -844 
Q 928 -128 1133 580 
Q 1338 1288 1338 2009 
Q 1338 2731 1133 3434 
Q 928 4138 513 4856 
z
" transform="scale(0.015625)"/>
      </defs>
      <use xlink:href="#DejaVuSans-Oblique-70" transform="translate(0 0.015625)"/>
      <use xlink:href="#DejaVuSans-28" transform="translate(63.476562 0.015625)"/>
      <use xlink:href="#DejaVuSans-Oblique-6b" transform="translate(102.490234 0.015625)"/>
      <use xlink:href="#DejaVuSans-29" transform="translate(160.400391 0.015625)"/>
     </g>
    </g>
   </g>
   <g id="line2d_35">
    <path d="M 142.847665 62.487257 
L 145.18356 53.851351 
L 147.689057 54.750357 
L 150.371148 55.700029 
L 152.771894 56.644952 
L 155.274355 57.662656 
L 157.551015 58.710237 
L 159.880097 59.609146 
L 162.464028 60.868668 
L 165.020162 62.104225 
L 167.341079 63.148005 
L 169.790637 64.493636 
L 172.341847 65.751032 
L 174.791037 67.114851 
L 177.154725 68.375362 
L 179.535752 69.658422 
L 182.028233 71.070397 
L 184.485234 72.546674 
L 186.895612 74.001391 
L 189.251916 75.396634 
L 191.684684 76.763414 
L 194.105652 78.281787 
L 196.482731 79.773441 
L 198.924178 81.397947 
L 201.34388 82.662482 
L 203.769804 84.100565 
L 206.18469 85.83934 
L 208.603319 87.283157 
L 211.042962 88.878243 
L 213.447449 90.14314 
L 215.858399 91.647512 
L 218.28328 93.105454 
L 220.697177 94.625202 
L 223.105051 95.828486 
L 225.507096 96.997936 
L 227.919615 98.295496 
L 230.336964 99.343064 
L 232.752022 99.950829 
L 235.17152 99.517689 
L 237.587161 93.761387 
L 239.990717 103.441499 
L 242.403422 164.474403 
" clip-path="url(#p2eef0fb92a)" style="fill: none; stroke: #1f77b4; stroke-opacity: 0.2; stroke-width: 1.5; stroke-linecap: square"/>
   </g>
   <g id="line2d_36">
    <path d="M 142.847665 52.428181 
L 145.18356 53.190794 
L 147.689057 54.05639 
L 150.371148 55.038463 
L 152.771894 55.966698 
L 155.274355 56.984006 
L 157.551015 57.953677 
L 159.880097 58.989061 
L 162.464028 60.188675 
L 165.020162 61.427425 
L 167.341079 62.596237 
L 169.790637 63.874331 
L 172.341847 65.25279 
L 174.791037 66.620171 
L 177.154725 67.980582 
L 179.535752 69.387333 
L 182.028233 70.898908 
L 184.485234 72.426228 
L 186.895612 73.958768 
L 189.251916 75.488006 
L 191.684684 77.097378 
L 194.105652 78.72798 
L 196.482731 80.355536 
L 198.924178 82.052826 
L 201.34388 83.759015 
L 203.769804 85.491995 
L 206.18469 87.237848 
L 208.603319 89.005709 
L 211.042962 90.807088 
L 213.447449 92.59904 
L 215.858399 94.411053 
L 218.28328 96.24776 
L 220.697177 98.089216 
L 223.105051 99.938047 
L 225.507096 101.793366 
L 227.919615 103.666909 
L 230.336964 105.553563 
L 232.752022 107.447011 
L 235.17152 109.351828 
L 237.587161 111.260822 
L 239.990717 113.166816 
L 242.403422 115.086078 
" clip-path="url(#p2eef0fb92a)" style="fill: none; stroke-dasharray: 5.55,2.4; stroke-dashoffset: 0; stroke: #1f77b4; stroke-opacity: 0.3; stroke-width: 1.5"/>
   </g>
   <g id="line2d_37">
    <path d="M 116.045485 44.332666 
L 118.709203 45.250991 
L 122.218736 46.423152 
L 125.342278 47.645003 
L 127.215871 48.433212 
L 129.775973 49.540111 
L 132.847048 50.817696 
L 135.584906 52.063749 
L 138.054871 53.266473 
L 140.30475 54.430067 
L 142.847665 55.644201 
L 145.18356 56.962106 
L 147.689057 58.280583 
L 150.371148 59.755908 
L 152.771894 61.128966 
L 155.274355 62.732232 
L 157.551015 63.855816 
L 159.880097 65.429904 
L 162.464028 66.945979 
L 165.020162 68.578762 
L 167.341079 70.018733 
L 169.790637 71.702761 
L 172.341847 73.334324 
L 174.791037 74.854873 
L 177.154725 76.350104 
L 179.535752 78.040895 
L 182.028233 79.702324 
L 184.485234 81.196553 
L 186.895612 82.993126 
L 189.251916 84.349036 
L 191.684684 86.228496 
L 194.105652 87.69985 
L 196.482731 89.297547 
L 198.924178 91.171331 
L 201.34388 92.700954 
L 203.769804 94.012802 
L 206.18469 95.557489 
L 208.603319 97.001857 
L 211.042962 98.354703 
L 213.447449 100.036458 
L 215.858399 100.969439 
L 218.28328 102.240301 
L 220.697177 101.971922 
L 223.105051 99.189796 
L 225.507096 101.974985 
L 227.919615 122.026718 
" clip-path="url(#p2eef0fb92a)" style="fill: none; stroke: #ff7f0e; stroke-opacity: 0.2; stroke-width: 1.5; stroke-linecap: square"/>
   </g>
   <g id="line2d_38">
    <path d="M 116.045485 43.969349 
L 118.709203 44.844446 
L 122.218736 46.082778 
L 125.342278 47.267942 
L 127.215871 48.016713 
L 129.775973 49.085896 
L 132.847048 50.438484 
L 135.584906 51.708176 
L 138.054871 52.904577 
L 140.30475 54.035707 
L 142.847665 55.360591 
L 145.18356 56.61995 
L 147.689057 58.014459 
L 150.371148 59.555656 
L 152.771894 60.975974 
L 155.274355 62.49572 
L 157.551015 63.911606 
L 159.880097 65.391352 
L 162.464028 67.068137 
L 165.020162 68.761219 
L 167.341079 70.326354 
L 169.790637 72.005267 
L 172.341847 73.781515 
L 174.791037 75.511538 
L 177.154725 77.204565 
L 179.535752 78.927677 
L 182.028233 80.751378 
L 184.485234 82.567617 
L 186.895612 84.365905 
L 189.251916 86.138475 
L 191.684684 87.98258 
L 194.105652 89.830784 
L 196.482731 91.657144 
L 198.924178 93.54403 
L 201.34388 95.424284 
L 203.769804 97.318703 
L 206.18469 99.213014 
L 208.603319 101.118064 
L 211.042962 103.046907 
L 213.447449 104.954468 
L 215.858399 106.873096 
L 218.28328 108.808294 
L 220.697177 110.739718 
L 223.105051 112.670854 
L 225.507096 114.601433 
L 227.919615 116.544209 
" clip-path="url(#p2eef0fb92a)" style="fill: none; stroke-dasharray: 5.55,2.4; stroke-dashoffset: 0; stroke: #ff7f0e; stroke-opacity: 0.3; stroke-width: 1.5"/>
   </g>
   <g id="line2d_39">
    <path d="M 88.270443 36.053493 
L 95.543602 38.418721 
L 101.185102 40.599627 
L 105.794543 42.517395 
L 109.691771 44.324063 
L 113.067702 45.891611 
L 116.045485 47.441073 
L 118.709203 48.772837 
L 122.218736 50.652938 
L 125.342278 52.473021 
L 127.215871 53.5465 
L 129.775973 55.15242 
L 132.847048 56.877744 
L 135.584906 58.663723 
L 138.054871 60.26006 
L 140.30475 61.669325 
L 142.847665 63.219426 
L 145.18356 64.814723 
L 147.689057 66.5336 
L 150.371148 68.197954 
L 152.771894 69.915121 
L 155.274355 71.748313 
L 157.551015 73.449109 
L 159.880097 74.735148 
L 162.464028 76.628241 
L 165.020162 78.408213 
L 167.341079 80.092525 
L 169.790637 81.538026 
L 172.341847 83.572417 
L 174.791037 85.461057 
L 177.154725 86.890718 
L 179.535752 88.71704 
L 182.028233 90.360747 
L 184.485234 92.101813 
L 186.895612 93.857186 
L 189.251916 95.192604 
L 191.684684 97.104977 
L 194.105652 99.048587 
L 196.482731 100.206612 
L 198.924178 101.237119 
L 201.34388 103.006208 
L 203.769804 104.07839 
L 206.18469 104.372489 
L 208.603319 103.87863 
L 211.042962 105.129012 
L 213.447449 112.304886 
L 215.858399 128.730973 
L 218.28328 153.131469 
" clip-path="url(#p2eef0fb92a)" style="fill: none; stroke: #2ca02c; stroke-opacity: 0.2; stroke-width: 1.5; stroke-linecap: square"/>
   </g>
   <g id="line2d_40">
    <path d="M 88.270443 35.822842 
L 95.543602 38.212253 
L 101.185102 40.353713 
L 105.794543 42.294056 
L 109.691771 44.067946 
L 113.067702 45.701769 
L 116.045485 47.216084 
L 118.709203 48.62722 
L 122.218736 50.565147 
L 125.342278 52.362101 
L 127.215871 53.471177 
L 129.775973 55.022862 
L 132.847048 56.936903 
L 135.584906 58.68902 
L 138.054871 60.30453 
L 140.30475 61.803232 
L 142.847665 63.526493 
L 145.18356 65.135294 
L 147.689057 66.886657 
L 150.371148 68.789018 
L 152.771894 70.514305 
L 155.274355 72.333667 
L 157.551015 74.006163 
L 159.880097 75.733013 
L 162.464028 77.66619 
L 165.020162 79.595159 
L 167.341079 81.359787 
L 169.790637 83.234742 
L 172.341847 85.200081 
L 174.791037 87.097909 
L 177.154725 88.941182 
L 179.535752 90.803947 
L 182.028233 92.762471 
L 184.485234 94.700958 
L 186.895612 96.609579 
L 189.251916 98.481442 
L 191.684684 100.419797 
L 194.105652 102.35405 
L 196.482731 104.257937 
L 198.924178 106.217806 
L 201.34388 108.164256 
L 203.769804 110.119391 
L 206.18469 112.068968 
L 208.603319 114.024608 
L 211.042962 116.000048 
L 213.447449 117.949535 
L 215.858399 119.906547 
L 218.28328 121.876967 
" clip-path="url(#p2eef0fb92a)" style="fill: none; stroke-dasharray: 5.55,2.4; stroke-dashoffset: 0; stroke: #2ca02c; stroke-opacity: 0.3; stroke-width: 1.5"/>
   </g>
   <g id="line2d_41">
    <path d="M 60.495401 29.233962 
L 78.019501 34.942777 
L 88.270443 39.430868 
L 95.543602 43.144933 
L 101.185102 46.139658 
L 105.794543 48.78493 
L 109.691771 51.247992 
L 113.067702 53.320171 
L 116.045485 54.989803 
L 118.709203 56.773716 
L 122.218736 59.110929 
L 125.342278 61.337413 
L 127.215871 62.790003 
L 129.775973 64.205744 
L 132.847048 66.47799 
L 135.584906 68.462971 
L 138.054871 70.083736 
L 140.30475 71.768114 
L 142.847665 73.709749 
L 145.18356 75.294971 
L 147.689057 76.954314 
L 150.371148 78.944532 
L 152.771894 80.801824 
L 155.274355 82.481936 
L 157.551015 83.972964 
L 159.880097 85.814033 
L 162.464028 87.603287 
L 165.020162 89.757463 
L 167.341079 91.159455 
L 169.790637 92.667922 
L 172.341847 94.622736 
L 174.791037 96.589461 
L 177.154725 97.924123 
L 179.535752 99.483919 
L 182.028233 101.845476 
L 184.485234 102.895552 
L 186.895612 104.298998 
L 189.251916 105.772764 
L 191.684684 105.950841 
L 194.105652 107.454876 
L 196.482731 108.843784 
L 198.924178 112.593102 
L 201.34388 118.585432 
L 203.769804 130.081483 
L 206.18469 140.909979 
" clip-path="url(#p2eef0fb92a)" style="fill: none; stroke: #d62728; stroke-opacity: 0.2; stroke-width: 1.5; stroke-linecap: square"/>
   </g>
   <g id="line2d_42">
    <path d="M 60.495401 29.087472 
L 78.019501 34.844568 
L 88.270443 39.321329 
L 95.543602 42.991075 
L 101.185102 46.103179 
L 105.794543 48.806051 
L 109.691771 51.195462 
L 113.067702 53.336922 
L 116.045485 55.277265 
L 118.709203 57.051154 
L 122.218736 59.439502 
L 125.342278 61.610428 
L 127.215871 62.931577 
L 129.775973 64.758253 
L 132.847048 66.979927 
L 135.584906 68.986299 
L 138.054871 70.815502 
L 140.30475 72.496341 
L 142.847665 74.41164 
L 145.18356 76.184462 
L 147.689057 78.099197 
L 150.371148 80.162797 
L 152.771894 82.021118 
L 155.274355 83.968478 
L 157.551015 85.748528 
L 159.880097 87.577181 
L 162.464028 89.614199 
L 165.020162 91.63713 
L 167.341079 93.480067 
L 169.790637 95.430964 
L 172.341847 97.468617 
L 174.791037 99.429861 
L 177.154725 101.329328 
L 179.535752 103.243817 
L 182.028233 105.251825 
L 184.485234 107.234806 
L 186.895612 109.183278 
L 189.251916 111.090759 
L 191.684684 113.062709 
L 194.105652 115.027456 
L 196.482731 116.95867 
L 198.924178 118.944138 
L 201.34388 120.913703 
L 203.769804 122.889952 
L 206.18469 124.858674 
" clip-path="url(#p2eef0fb92a)" style="fill: none; stroke-dasharray: 5.55,2.4; stroke-dashoffset: 0; stroke: #d62728; stroke-opacity: 0.3; stroke-width: 1.5"/>
   </g>
   <g id="patch_3">
    <path d="M 51.4 171.24375 
L 51.4 22.318125 
" style="fill: none; stroke: #000000; stroke-width: 0.8; stroke-linejoin: miter; stroke-linecap: square"/>
   </g>
   <g id="patch_4">
    <path d="M 251.498824 171.24375 
L 251.498824 22.318125 
" style="fill: none; stroke: #000000; stroke-width: 0.8; stroke-linejoin: miter; stroke-linecap: square"/>
   </g>
   <g id="patch_5">
    <path d="M 51.4 171.24375 
L 251.498824 171.24375 
" style="fill: none; stroke: #000000; stroke-width: 0.8; stroke-linejoin: miter; stroke-linecap: square"/>
   </g>
   <g id="patch_6">
    <path d="M 51.4 22.318125 
L 251.498824 22.318125 
" style="fill: none; stroke: #000000; stroke-width: 0.8; stroke-linejoin: miter; stroke-linecap: square"/>
   </g>
   <g id="text_10">
    <!-- (A) -->
    <g transform="translate(142.663162 16.318125) scale(0.12 -0.12)">
     <defs>
      <path id="DejaVuSans-41" d="M 2188 4044 
L 1331 1722 
L 3047 1722 
L 2188 4044 
z
M 1831 4666 
L 2547 4666 
L 4325 0 
L 3669 0 
L 3244 1197 
L 1141 1197 
L 716 0 
L 50 0 
L 1831 4666 
z
" transform="scale(0.015625)"/>
     </defs>
     <use xlink:href="#DejaVuSans-28"/>
     <use xlink:href="#DejaVuSans-41" x="39.013672"/>
     <use xlink:href="#DejaVuSans-29" x="107.421875"/>
    </g>
   </g>
  </g>
  <g id="axes_2">
   <g id="patch_7">
    <path d="M 306.498824 171.24375 
L 379.048235 171.24375 
L 379.048235 22.318125 
L 306.498824 22.318125 
z
" style="fill: #ffffff"/>
   </g>
   <g id="line2d_43">
    <path d="M 306.498824 25.757974 
L 312.413935 31.87291 
L 317.002952 37.526749 
L 320.752915 42.786374 
L 323.923732 47.704744 
L 326.670588 52.324581 
L 329.093602 56.680893 
L 331.261143 60.802753 
L 333.221981 64.714592 
L 335.01213 68.437149 
L 336.658942 71.988192 
L 338.183679 75.383063 
L 339.603197 78.635108 
L 340.931085 81.756011 
L 342.178459 84.756063 
L 343.354527 87.644379 
L 344.467001 90.429066 
L 345.522409 93.117375 
L 346.52632 95.715813 
L 347.483527 98.230247 
L 348.398182 100.665979 
L 349.273909 103.027824 
L 350.113887 105.320164 
L 350.920919 107.547001 
L 351.697493 109.711998 
L 352.445825 111.818516 
L 353.167897 113.869651 
L 353.865489 115.868255 
L 354.540208 117.816965 
L 355.193506 119.718225 
L 355.8267 121.574301 
L 356.440992 123.387301 
L 357.037478 125.159187 
L 357.617161 126.89179 
L 358.18096 128.586821 
L 358.729725 130.245881 
L 359.264236 131.87047 
L 359.785214 133.461998 
L 360.293328 135.021786 
L 360.789198 136.551081 
L 361.2734 138.051055 
L 361.746471 139.522816 
L 362.208912 140.967407 
L 362.661188 142.385816 
L 363.103738 143.778979 
L 363.536971 145.14778 
L 363.961271 146.49306 
L 364.376999 147.815614 
L 364.784495 149.116199 
L 365.184079 150.395536 
L 365.576051 151.654308 
L 365.960697 152.893168 
L 366.338285 154.112738 
L 366.709069 155.313609 
L 367.073291 156.496349 
L 367.431179 157.661496 
L 367.782949 158.809569 
L 368.128807 159.94106 
L 368.468948 161.056444 
L 368.803559 162.156172 
L 369.132816 163.240679 
L 369.456887 164.310382 
L 369.775935 165.365679 
L 370.090111 166.406954 
L 370.399563 167.434576 
L 370.704431 168.448897 
L 371.004848 169.45026 
L 371.300942 170.43899 
L 371.592837 171.415404 
L 371.880649 172.379804 
L 372.164492 173.332484 
L 372.444472 174.273724 
L 372.720695 175.203797 
L 372.993259 176.122965 
L 373.26226 177.031481 
L 373.52779 177.929589 
L 373.789938 178.817525 
L 374.048788 179.695518 
L 374.304423 180.563788 
L 374.556921 181.422547 
L 374.806359 182.272003 
L 375.052809 183.112355 
L 375.296343 183.943796 
L 375.537028 184.766513 
L 375.774931 185.580689 
L 376.010116 186.386497 
L 376.242642 187.18411 
L 376.472571 187.973691 
L 376.699959 188.755402 
L 376.924862 189.529397 
L 377.147334 190.295828 
L 377.367426 191.054841 
L 377.58519 191.806579 
L 377.800673 192.55118 
L 378.013923 193.288778 
L 378.224986 194.019503 
L 378.433907 194.743483 
L 378.640727 195.460842 
L 378.84549 196.171698 
L 379.048235 196.87617 
" clip-path="url(#p881317ca19)" style="fill: none; stroke: #000000; stroke-opacity: 0.2; stroke-width: 1.5; stroke-linecap: square"/>
   </g>
   <g id="line2d_44">
    <path clip-path="url(#p881317ca19)" style="fill: none; stroke: #000000; stroke-opacity: 0.2; stroke-width: 1.5; stroke-linecap: square"/>
   </g>
   <g id="PathCollection_5">
    <g clip-path="url(#p881317ca19)"/>
   </g>
   <g id="PathCollection_6">
    <g clip-path="url(#p881317ca19)"/>
   </g>
   <g id="PathCollection_7">
    <g clip-path="url(#p881317ca19)"/>
   </g>
   <g id="PathCollection_8">
    <defs>
     <path id="m46d30b023f" d="M -1.936492 1.936492 
L 1.936492 -1.936492 
M -1.936492 -1.936492 
L 1.936492 1.936492 
" style="stroke: #d62728"/>
    </defs>
    <g clip-path="url(#p881317ca19)">
     <use xlink:href="#m46d30b023f" x="314.545186" y="34.948595" style="fill: #d62728; stroke: #d62728"/>
     <use xlink:href="#m46d30b023f" x="328.809529" y="56.527674" style="fill: #d62728; stroke: #d62728"/>
     <use xlink:href="#m46d30b023f" x="337.153635" y="73.492467" style="fill: #d62728; stroke: #d62728"/>
     <use xlink:href="#m46d30b023f" x="343.073873" y="87.531474" style="fill: #d62728; stroke: #d62728"/>
     <use xlink:href="#m46d30b023f" x="347.665966" y="98.851408" style="fill: #d62728; stroke: #d62728"/>
     <use xlink:href="#m46d30b023f" x="351.417979" y="108.850426" style="fill: #d62728; stroke: #d62728"/>
     <use xlink:href="#m46d30b023f" x="354.590261" y="118.160697" style="fill: #d62728; stroke: #d62728"/>
     <use xlink:href="#m46d30b023f" x="357.338217" y="125.993446" style="fill: #d62728; stroke: #d62728"/>
     <use xlink:href="#m46d30b023f" x="359.762085" y="132.304581" style="fill: #d62728; stroke: #d62728"/>
     <use xlink:href="#m46d30b023f" x="361.93031" y="139.047698" style="fill: #d62728; stroke: #d62728"/>
     <use xlink:href="#m46d30b023f" x="364.787015" y="147.882264" style="fill: #d62728; stroke: #d62728"/>
     <use xlink:href="#m46d30b023f" x="367.329529" y="156.29828" style="fill: #d62728; stroke: #d62728"/>
     <use xlink:href="#m46d30b023f" x="368.854605" y="161.789009" style="fill: #d62728; stroke: #d62728"/>
    </g>
   </g>
   <g id="PathCollection_9">
    <g clip-path="url(#p881317ca19)"/>
   </g>
   <g id="matplotlib.axis_3">
    <g id="xtick_32">
     <g id="line2d_45">
      <g>
       <use xlink:href="#maafe4d8b64" x="314.545186" y="171.24375" style="stroke: #000000; stroke-width: 0.8"/>
      </g>
     </g>
     <g id="text_11">
      <!-- $\mathdefault{10^{0}}$ -->
      <g transform="translate(305.745186 185.842187) scale(0.1 -0.1)">
       <use xlink:href="#DejaVuSans-31" transform="translate(0 0.765625)"/>
       <use xlink:href="#DejaVuSans-30" transform="translate(63.623047 0.765625)"/>
       <use xlink:href="#DejaVuSans-30" transform="translate(128.203125 39.046875) scale(0.7)"/>
      </g>
     </g>
    </g>
    <g id="xtick_33">
     <g id="line2d_46">
      <g>
       <use xlink:href="#maafe4d8b64" x="361.93031" y="171.24375" style="stroke: #000000; stroke-width: 0.8"/>
      </g>
     </g>
     <g id="text_12">
      <!-- $\mathdefault{10^{1}}$ -->
      <g transform="translate(353.13031 185.842187) scale(0.1 -0.1)">
       <use xlink:href="#DejaVuSans-31" transform="translate(0 0.684375)"/>
       <use xlink:href="#DejaVuSans-30" transform="translate(63.623047 0.684375)"/>
       <use xlink:href="#DejaVuSans-31" transform="translate(128.203125 38.965625) scale(0.7)"/>
      </g>
     </g>
    </g>
    <g id="xtick_34">
     <g id="line2d_47">
      <g>
       <use xlink:href="#mb8eb8b3340" x="307.205137" y="171.24375" style="stroke: #000000; stroke-width: 0.6"/>
      </g>
     </g>
    </g>
    <g id="xtick_35">
     <g id="line2d_48">
      <g>
       <use xlink:href="#mb8eb8b3340" x="309.953093" y="171.24375" style="stroke: #000000; stroke-width: 0.6"/>
      </g>
     </g>
    </g>
    <g id="xtick_36">
     <g id="line2d_49">
      <g>
       <use xlink:href="#mb8eb8b3340" x="312.376961" y="171.24375" style="stroke: #000000; stroke-width: 0.6"/>
      </g>
     </g>
    </g>
    <g id="xtick_37">
     <g id="line2d_50">
      <g>
       <use xlink:href="#mb8eb8b3340" x="328.809529" y="171.24375" style="stroke: #000000; stroke-width: 0.6"/>
      </g>
     </g>
    </g>
    <g id="xtick_38">
     <g id="line2d_51">
      <g>
       <use xlink:href="#mb8eb8b3340" x="337.153635" y="171.24375" style="stroke: #000000; stroke-width: 0.6"/>
      </g>
     </g>
    </g>
    <g id="xtick_39">
     <g id="line2d_52">
      <g>
       <use xlink:href="#mb8eb8b3340" x="343.073873" y="171.24375" style="stroke: #000000; stroke-width: 0.6"/>
      </g>
     </g>
    </g>
    <g id="xtick_40">
     <g id="line2d_53">
      <g>
       <use xlink:href="#mb8eb8b3340" x="347.665966" y="171.24375" style="stroke: #000000; stroke-width: 0.6"/>
      </g>
     </g>
    </g>
    <g id="xtick_41">
     <g id="line2d_54">
      <g>
       <use xlink:href="#mb8eb8b3340" x="351.417979" y="171.24375" style="stroke: #000000; stroke-width: 0.6"/>
      </g>
     </g>
    </g>
    <g id="xtick_42">
     <g id="line2d_55">
      <g>
       <use xlink:href="#mb8eb8b3340" x="354.590261" y="171.24375" style="stroke: #000000; stroke-width: 0.6"/>
      </g>
     </g>
    </g>
    <g id="xtick_43">
     <g id="line2d_56">
      <g>
       <use xlink:href="#mb8eb8b3340" x="357.338217" y="171.24375" style="stroke: #000000; stroke-width: 0.6"/>
      </g>
     </g>
    </g>
    <g id="xtick_44">
     <g id="line2d_57">
      <g>
       <use xlink:href="#mb8eb8b3340" x="359.762085" y="171.24375" style="stroke: #000000; stroke-width: 0.6"/>
      </g>
     </g>
    </g>
    <g id="xtick_45">
     <g id="line2d_58">
      <g>
       <use xlink:href="#mb8eb8b3340" x="376.194653" y="171.24375" style="stroke: #000000; stroke-width: 0.6"/>
      </g>
     </g>
    </g>
    <g id="text_13">
     <!-- $k$ -->
     <g transform="translate(339.873529 199.520312) scale(0.1 -0.1)">
      <use xlink:href="#DejaVuSans-Oblique-6b" transform="translate(0 0.015625)"/>
     </g>
    </g>
   </g>
   <g id="matplotlib.axis_4">
    <g id="ytick_4">
     <g id="line2d_59">
      <g>
       <use xlink:href="#m2909de622e" x="306.498824" y="148.182222" style="stroke: #000000; stroke-width: 0.8"/>
      </g>
     </g>
     <g id="text_14">
      <!-- $\mathdefault{10^{-2}}$ -->
      <g transform="translate(275.998824 151.98144) scale(0.1 -0.1)">
       <use xlink:href="#DejaVuSans-31" transform="translate(0 0.765625)"/>
       <use xlink:href="#DejaVuSans-30" transform="translate(63.623047 0.765625)"/>
       <use xlink:href="#DejaVuSans-2212" transform="translate(128.203125 39.046875) scale(0.7)"/>
       <use xlink:href="#DejaVuSans-32" transform="translate(186.855469 39.046875) scale(0.7)"/>
      </g>
     </g>
    </g>
    <g id="ytick_5">
     <g id="line2d_60">
      <g>
       <use xlink:href="#m2909de622e" x="306.498824" y="75.891819" style="stroke: #000000; stroke-width: 0.8"/>
      </g>
     </g>
     <g id="text_15">
      <!-- $\mathdefault{10^{-1}}$ -->
      <g transform="translate(275.998824 79.691037) scale(0.1 -0.1)">
       <use xlink:href="#DejaVuSans-31" transform="translate(0 0.684375)"/>
       <use xlink:href="#DejaVuSans-30" transform="translate(63.623047 0.684375)"/>
       <use xlink:href="#DejaVuSans-2212" transform="translate(128.203125 38.965625) scale(0.7)"/>
       <use xlink:href="#DejaVuSans-31" transform="translate(186.855469 38.965625) scale(0.7)"/>
      </g>
     </g>
    </g>
    <g id="ytick_6">
     <g id="line2d_61">
      <defs>
       <path id="m0a4ce4f324" d="M 0 0 
L -2 0 
" style="stroke: #000000; stroke-width: 0.6"/>
      </defs>
      <g>
       <use xlink:href="#m0a4ce4f324" x="306.498824" y="169.943801" style="stroke: #000000; stroke-width: 0.6"/>
      </g>
     </g>
    </g>
    <g id="ytick_7">
     <g id="line2d_62">
      <g>
       <use xlink:href="#m0a4ce4f324" x="306.498824" y="164.219757" style="stroke: #000000; stroke-width: 0.6"/>
      </g>
     </g>
    </g>
    <g id="ytick_8">
     <g id="line2d_63">
      <g>
       <use xlink:href="#m0a4ce4f324" x="306.498824" y="159.380147" style="stroke: #000000; stroke-width: 0.6"/>
      </g>
     </g>
    </g>
    <g id="ytick_9">
     <g id="line2d_64">
      <g>
       <use xlink:href="#m0a4ce4f324" x="306.498824" y="155.187885" style="stroke: #000000; stroke-width: 0.6"/>
      </g>
     </g>
    </g>
    <g id="ytick_10">
     <g id="line2d_65">
      <g>
       <use xlink:href="#m0a4ce4f324" x="306.498824" y="151.490049" style="stroke: #000000; stroke-width: 0.6"/>
      </g>
     </g>
    </g>
    <g id="ytick_11">
     <g id="line2d_66">
      <g>
       <use xlink:href="#m0a4ce4f324" x="306.498824" y="126.420642" style="stroke: #000000; stroke-width: 0.6"/>
      </g>
     </g>
    </g>
    <g id="ytick_12">
     <g id="line2d_67">
      <g>
       <use xlink:href="#m0a4ce4f324" x="306.498824" y="113.690934" style="stroke: #000000; stroke-width: 0.6"/>
      </g>
     </g>
    </g>
    <g id="ytick_13">
     <g id="line2d_68">
      <g>
       <use xlink:href="#m0a4ce4f324" x="306.498824" y="104.659062" style="stroke: #000000; stroke-width: 0.6"/>
      </g>
     </g>
    </g>
    <g id="ytick_14">
     <g id="line2d_69">
      <g>
       <use xlink:href="#m0a4ce4f324" x="306.498824" y="97.653398" style="stroke: #000000; stroke-width: 0.6"/>
      </g>
     </g>
    </g>
    <g id="ytick_15">
     <g id="line2d_70">
      <g>
       <use xlink:href="#m0a4ce4f324" x="306.498824" y="91.929354" style="stroke: #000000; stroke-width: 0.6"/>
      </g>
     </g>
    </g>
    <g id="ytick_16">
     <g id="line2d_71">
      <g>
       <use xlink:href="#m0a4ce4f324" x="306.498824" y="87.089744" style="stroke: #000000; stroke-width: 0.6"/>
      </g>
     </g>
    </g>
    <g id="ytick_17">
     <g id="line2d_72">
      <g>
       <use xlink:href="#m0a4ce4f324" x="306.498824" y="82.897482" style="stroke: #000000; stroke-width: 0.6"/>
      </g>
     </g>
    </g>
    <g id="ytick_18">
     <g id="line2d_73">
      <g>
       <use xlink:href="#m0a4ce4f324" x="306.498824" y="79.199646" style="stroke: #000000; stroke-width: 0.6"/>
      </g>
     </g>
    </g>
    <g id="ytick_19">
     <g id="line2d_74">
      <g>
       <use xlink:href="#m0a4ce4f324" x="306.498824" y="54.130239" style="stroke: #000000; stroke-width: 0.6"/>
      </g>
     </g>
    </g>
    <g id="ytick_20">
     <g id="line2d_75">
      <g>
       <use xlink:href="#m0a4ce4f324" x="306.498824" y="41.400531" style="stroke: #000000; stroke-width: 0.6"/>
      </g>
     </g>
    </g>
    <g id="ytick_21">
     <g id="line2d_76">
      <g>
       <use xlink:href="#m0a4ce4f324" x="306.498824" y="32.368659" style="stroke: #000000; stroke-width: 0.6"/>
      </g>
     </g>
    </g>
    <g id="ytick_22">
     <g id="line2d_77">
      <g>
       <use xlink:href="#m0a4ce4f324" x="306.498824" y="25.362995" style="stroke: #000000; stroke-width: 0.6"/>
      </g>
     </g>
    </g>
    <g id="text_16">
     <!-- $p(k)$ -->
     <g transform="translate(269.898824 106.780937) rotate(-90) scale(0.1 -0.1)">
      <use xlink:href="#DejaVuSans-Oblique-70" transform="translate(0 0.015625)"/>
      <use xlink:href="#DejaVuSans-28" transform="translate(63.476562 0.015625)"/>
      <use xlink:href="#DejaVuSans-Oblique-6b" transform="translate(102.490234 0.015625)"/>
      <use xlink:href="#DejaVuSans-29" transform="translate(160.400391 0.015625)"/>
     </g>
    </g>
   </g>
   <g id="patch_8">
    <path d="M 306.498824 171.24375 
L 306.498824 22.318125 
" style="fill: none; stroke: #000000; stroke-width: 0.8; stroke-linejoin: miter; stroke-linecap: square"/>
   </g>
   <g id="patch_9">
    <path d="M 379.048235 171.24375 
L 379.048235 22.318125 
" style="fill: none; stroke: #000000; stroke-width: 0.8; stroke-linejoin: miter; stroke-linecap: square"/>
   </g>
   <g id="patch_10">
    <path d="M 306.498824 171.24375 
L 379.048235 171.24375 
" style="fill: none; stroke: #000000; stroke-width: 0.8; stroke-linejoin: miter; stroke-linecap: square"/>
   </g>
   <g id="patch_11">
    <path d="M 306.498824 22.318125 
L 379.048235 22.318125 
" style="fill: none; stroke: #000000; stroke-width: 0.8; stroke-linejoin: miter; stroke-linecap: square"/>
   </g>
   <g id="text_17">
    <!-- (B) -->
    <g transform="translate(333.975092 16.318125) scale(0.12 -0.12)">
     <defs>
      <path id="DejaVuSans-42" d="M 1259 2228 
L 1259 519 
L 2272 519 
Q 2781 519 3026 730 
Q 3272 941 3272 1375 
Q 3272 1813 3026 2020 
Q 2781 2228 2272 2228 
L 1259 2228 
z
M 1259 4147 
L 1259 2741 
L 2194 2741 
Q 2656 2741 2882 2914 
Q 3109 3088 3109 3444 
Q 3109 3797 2882 3972 
Q 2656 4147 2194 4147 
L 1259 4147 
z
M 628 4666 
L 2241 4666 
Q 2963 4666 3353 4366 
Q 3744 4066 3744 3513 
Q 3744 3084 3544 2831 
Q 3344 2578 2956 2516 
Q 3422 2416 3680 2098 
Q 3938 1781 3938 1306 
Q 3938 681 3513 340 
Q 3088 0 2303 0 
L 628 0 
L 628 4666 
z
" transform="scale(0.015625)"/>
     </defs>
     <use xlink:href="#DejaVuSans-28"/>
     <use xlink:href="#DejaVuSans-42" x="39.013672"/>
     <use xlink:href="#DejaVuSans-29" x="107.617188"/>
    </g>
   </g>
   <g id="legend_1">
    <g id="patch_12">
     <path d="M 384.675706 113.40875 
L 442.775706 113.40875 
Q 444.775706 113.40875 444.775706 111.40875 
L 444.775706 24.318125 
Q 444.775706 22.318125 442.775706 22.318125 
L 384.675706 22.318125 
Q 382.675706 22.318125 382.675706 24.318125 
L 382.675706 111.40875 
Q 382.675706 113.40875 384.675706 113.40875 
z
" style="fill: #ffffff; opacity: 0.8; stroke: #cccccc; stroke-linejoin: miter"/>
    </g>
    <g id="text_18">
     <!-- $m$ -->
     <g transform="translate(408.825706 33.916562) scale(0.1 -0.1)">
      <defs>
       <path id="DejaVuSans-Oblique-6d" d="M 5747 2113 
L 5338 0 
L 4763 0 
L 5166 2094 
Q 5191 2228 5203 2325 
Q 5216 2422 5216 2491 
Q 5216 2772 5059 2928 
Q 4903 3084 4622 3084 
Q 4203 3084 3875 2770 
Q 3547 2456 3450 1953 
L 3066 0 
L 2491 0 
L 2900 2094 
Q 2925 2209 2937 2307 
Q 2950 2406 2950 2484 
Q 2950 2769 2794 2926 
Q 2638 3084 2363 3084 
Q 1938 3084 1609 2770 
Q 1281 2456 1184 1953 
L 800 0 
L 225 0 
L 909 3500 
L 1484 3500 
L 1375 2956 
Q 1609 3263 1923 3423 
Q 2238 3584 2597 3584 
Q 2978 3584 3223 3384 
Q 3469 3184 3519 2828 
Q 3781 3197 4126 3390 
Q 4472 3584 4856 3584 
Q 5306 3584 5551 3325 
Q 5797 3066 5797 2591 
Q 5797 2488 5784 2364 
Q 5772 2241 5747 2113 
z
" transform="scale(0.015625)"/>
      </defs>
      <use xlink:href="#DejaVuSans-Oblique-6d"/>
     </g>
    </g>
    <g id="PathCollection_10">
     <defs>
      <path id="m6685718a5d" d="M -2.236068 2.236068 
L 2.236068 -2.236068 
M -2.236068 -2.236068 
L 2.236068 2.236068 
" style="stroke: #1f77b4"/>
     </defs>
     <g>
      <use xlink:href="#m6685718a5d" x="396.675706" y="45.969687" style="fill: #1f77b4; stroke: #1f77b4"/>
     </g>
    </g>
    <g id="text_19">
     <!-- 81 -->
     <g transform="translate(414.675706 48.594687) scale(0.1 -0.1)">
      <defs>
       <path id="DejaVuSans-38" d="M 2034 2216 
Q 1584 2216 1326 1975 
Q 1069 1734 1069 1313 
Q 1069 891 1326 650 
Q 1584 409 2034 409 
Q 2484 409 2743 651 
Q 3003 894 3003 1313 
Q 3003 1734 2745 1975 
Q 2488 2216 2034 2216 
z
M 1403 2484 
Q 997 2584 770 2862 
Q 544 3141 544 3541 
Q 544 4100 942 4425 
Q 1341 4750 2034 4750 
Q 2731 4750 3128 4425 
Q 3525 4100 3525 3541 
Q 3525 3141 3298 2862 
Q 3072 2584 2669 2484 
Q 3125 2378 3379 2068 
Q 3634 1759 3634 1313 
Q 3634 634 3220 271 
Q 2806 -91 2034 -91 
Q 1263 -91 848 271 
Q 434 634 434 1313 
Q 434 1759 690 2068 
Q 947 2378 1403 2484 
z
M 1172 3481 
Q 1172 3119 1398 2916 
Q 1625 2713 2034 2713 
Q 2441 2713 2670 2916 
Q 2900 3119 2900 3481 
Q 2900 3844 2670 4047 
Q 2441 4250 2034 4250 
Q 1625 4250 1398 4047 
Q 1172 3844 1172 3481 
z
" transform="scale(0.015625)"/>
      </defs>
      <use xlink:href="#DejaVuSans-38"/>
      <use xlink:href="#DejaVuSans-31" x="63.623047"/>
     </g>
    </g>
    <g id="PathCollection_11">
     <defs>
      <path id="mb235a10b49" d="M -2.236068 2.236068 
L 2.236068 -2.236068 
M -2.236068 -2.236068 
L 2.236068 2.236068 
" style="stroke: #ff7f0e"/>
     </defs>
     <g>
      <use xlink:href="#mb235a10b49" x="396.675706" y="60.647812" style="fill: #ff7f0e; stroke: #ff7f0e"/>
     </g>
    </g>
    <g id="text_20">
     <!-- 27 -->
     <g transform="translate(414.675706 63.272812) scale(0.1 -0.1)">
      <defs>
       <path id="DejaVuSans-37" d="M 525 4666 
L 3525 4666 
L 3525 4397 
L 1831 0 
L 1172 0 
L 2766 4134 
L 525 4134 
L 525 4666 
z
" transform="scale(0.015625)"/>
      </defs>
      <use xlink:href="#DejaVuSans-32"/>
      <use xlink:href="#DejaVuSans-37" x="63.623047"/>
     </g>
    </g>
    <g id="PathCollection_12">
     <defs>
      <path id="m9f4e11dcde" d="M -2.236068 2.236068 
L 2.236068 -2.236068 
M -2.236068 -2.236068 
L 2.236068 2.236068 
" style="stroke: #2ca02c"/>
     </defs>
     <g>
      <use xlink:href="#m9f4e11dcde" x="396.675706" y="75.325937" style="fill: #2ca02c; stroke: #2ca02c"/>
     </g>
    </g>
    <g id="text_21">
     <!-- 9 -->
     <g transform="translate(414.675706 77.950937) scale(0.1 -0.1)">
      <defs>
       <path id="DejaVuSans-39" d="M 703 97 
L 703 672 
Q 941 559 1184 500 
Q 1428 441 1663 441 
Q 2288 441 2617 861 
Q 2947 1281 2994 2138 
Q 2813 1869 2534 1725 
Q 2256 1581 1919 1581 
Q 1219 1581 811 2004 
Q 403 2428 403 3163 
Q 403 3881 828 4315 
Q 1253 4750 1959 4750 
Q 2769 4750 3195 4129 
Q 3622 3509 3622 2328 
Q 3622 1225 3098 567 
Q 2575 -91 1691 -91 
Q 1453 -91 1209 -44 
Q 966 3 703 97 
z
M 1959 2075 
Q 2384 2075 2632 2365 
Q 2881 2656 2881 3163 
Q 2881 3666 2632 3958 
Q 2384 4250 1959 4250 
Q 1534 4250 1286 3958 
Q 1038 3666 1038 3163 
Q 1038 2656 1286 2365 
Q 1534 2075 1959 2075 
z
" transform="scale(0.015625)"/>
      </defs>
      <use xlink:href="#DejaVuSans-39"/>
     </g>
    </g>
    <g id="PathCollection_13">
     <defs>
      <path id="m7ba34e7c3d" d="M -2.236068 2.236068 
L 2.236068 -2.236068 
M -2.236068 -2.236068 
L 2.236068 2.236068 
" style="stroke: #d62728"/>
     </defs>
     <g>
      <use xlink:href="#m7ba34e7c3d" x="396.675706" y="90.004062" style="fill: #d62728; stroke: #d62728"/>
     </g>
    </g>
    <g id="text_22">
     <!-- 3 -->
     <g transform="translate(414.675706 92.629062) scale(0.1 -0.1)">
      <use xlink:href="#DejaVuSans-33"/>
     </g>
    </g>
    <g id="line2d_78">
     <path d="M 386.675706 103.80875 
L 396.675706 103.80875 
L 406.675706 103.80875 
" style="fill: none; stroke: #000000; stroke-opacity: 0.2; stroke-width: 1.5; stroke-linecap: square"/>
    </g>
    <g id="text_23">
     <!-- $p_\infty(k)$ -->
     <g transform="translate(414.675706 107.30875) scale(0.1 -0.1)">
      <defs>
       <path id="DejaVuSans-221e" d="M 2916 1091 
Q 2819 1203 2666 1466 
Q 2456 1091 2272 925 
Q 2041 725 1681 725 
Q 1259 725 981 1041 
Q 688 1372 688 1919 
Q 688 2444 981 2800 
Q 1244 3116 1688 3116 
Q 1916 3116 2084 3022 
Q 2281 2919 2416 2741 
Q 2541 2581 2666 2366 
Q 2875 2741 3059 2906 
Q 3291 3106 3650 3106 
Q 4072 3106 4350 2791 
Q 4644 2459 4644 1913 
Q 4644 1388 4350 1031 
Q 4088 716 3644 716 
Q 3416 716 3247 809 
Q 3078 894 2916 1091 
z
M 1647 1134 
Q 2163 1134 2472 1884 
Q 2075 2703 1647 2703 
Q 1334 2703 1175 2478 
Q 1003 2238 1003 1919 
Q 1003 1569 1175 1353 
Q 1350 1134 1647 1134 
z
M 3684 2697 
Q 3219 2697 2859 1947 
Q 3253 1128 3684 1128 
Q 3997 1128 4156 1353 
Q 4328 1594 4328 1913 
Q 4328 2263 4156 2478 
Q 3981 2697 3684 2697 
z
" transform="scale(0.015625)"/>
      </defs>
      <use xlink:href="#DejaVuSans-Oblique-70" transform="translate(0 0.015625)"/>
      <use xlink:href="#DejaVuSans-221e" transform="translate(63.476562 -16.390625) scale(0.7)"/>
      <use xlink:href="#DejaVuSans-28" transform="translate(124.521484 0.015625)"/>
      <use xlink:href="#DejaVuSans-Oblique-6b" transform="translate(163.535156 0.015625)"/>
      <use xlink:href="#DejaVuSans-29" transform="translate(221.445312 0.015625)"/>
     </g>
    </g>
   </g>
  </g>
 </g>
 <defs>
  <clipPath id="p2eef0fb92a">
   <rect x="51.4" y="22.318125" width="200.098824" height="148.925625"/>
  </clipPath>
  <clipPath id="p881317ca19">
   <rect x="306.498824" y="22.318125" width="72.549412" height="148.925625"/>
  </clipPath>
 </defs>
</svg>
