<?xml version="1.0" encoding="utf-8" standalone="no"?>
<!DOCTYPE svg PUBLIC "-//W3C//DTD SVG 1.1//EN"
  "http://www.w3.org/Graphics/SVG/1.1/DTD/svg11.dtd">
<svg xmlns:xlink="http://www.w3.org/1999/xlink" width="451.804404pt" height="208.8pt" viewBox="0 0 451.804404 208.8" xmlns="http://www.w3.org/2000/svg" version="1.1">
 <metadata>
  <rdf:RDF xmlns:dc="http://purl.org/dc/elements/1.1/" xmlns:cc="http://creativecommons.org/ns#" xmlns:rdf="http://www.w3.org/1999/02/22-rdf-syntax-ns#">
   <cc:Work>
    <dc:type rdf:resource="http://purl.org/dc/dcmitype/StillImage"/>
    <dc:date>2023-03-25T21:18:11.342461</dc:date>
    <dc:format>image/svg+xml</dc:format>
    <dc:creator>
     <cc:Agent>
      <dc:title>Matplotlib v3.6.1, https://matplotlib.org/</dc:title>
     </cc:Agent>
    </dc:creator>
   </cc:Work>
  </rdf:RDF>
 </metadata>
 <defs>
  <style type="text/css">*{stroke-linejoin: round; stroke-linecap: butt}</style>
 </defs>
 <g id="figure_1">
  <g id="patch_1">
   <path d="M 0 208.8 
L 451.804404 208.8 
L 451.804404 0 
L 0 0 
z
" style="fill: #ffffff"/>
  </g>
  <g id="axes_1">
   <g id="patch_2">
    <path d="M 51.4 171.24375 
L 249.785809 171.24375 
L 249.785809 22.318125 
L 51.4 22.318125 
z
" style="fill: #ffffff"/>
   </g>
   <g id="PathCollection_1">
    <defs>
     <path id="mfd154363ac" d="M -1.118034 1.118034 
L 1.118034 -1.118034 
M -1.118034 -1.118034 
L 1.118034 1.118034 
" style="stroke: #1f77b4"/>
    </defs>
    <g clip-path="url(#pc82b5c91ce)">
     <use xlink:href="#mfd154363ac" x="92.066182" y="62.041123" style="fill: #1f77b4; stroke: #1f77b4"/>
     <use xlink:href="#mfd154363ac" x="96.953105" y="63.480273" style="fill: #1f77b4; stroke: #1f77b4"/>
     <use xlink:href="#mfd154363ac" x="101.840028" y="64.838361" style="fill: #1f77b4; stroke: #1f77b4"/>
     <use xlink:href="#mfd154363ac" x="106.843307" y="66.291691" style="fill: #1f77b4; stroke: #1f77b4"/>
     <use xlink:href="#mfd154363ac" x="111.846585" y="67.73545" style="fill: #1f77b4; stroke: #1f77b4"/>
     <use xlink:href="#mfd154363ac" x="116.733508" y="69.151525" style="fill: #1f77b4; stroke: #1f77b4"/>
     <use xlink:href="#mfd154363ac" x="121.736787" y="70.593172" style="fill: #1f77b4; stroke: #1f77b4"/>
     <use xlink:href="#mfd154363ac" x="126.740065" y="72.010689" style="fill: #1f77b4; stroke: #1f77b4"/>
     <use xlink:href="#mfd154363ac" x="131.626988" y="73.407487" style="fill: #1f77b4; stroke: #1f77b4"/>
     <use xlink:href="#mfd154363ac" x="136.630267" y="74.872995" style="fill: #1f77b4; stroke: #1f77b4"/>
     <use xlink:href="#mfd154363ac" x="141.633545" y="76.214362" style="fill: #1f77b4; stroke: #1f77b4"/>
     <use xlink:href="#mfd154363ac" x="146.520468" y="77.7354" style="fill: #1f77b4; stroke: #1f77b4"/>
     <use xlink:href="#mfd154363ac" x="151.407392" y="79.126354" style="fill: #1f77b4; stroke: #1f77b4"/>
     <use xlink:href="#mfd154363ac" x="156.41067" y="80.561496" style="fill: #1f77b4; stroke: #1f77b4"/>
     <use xlink:href="#mfd154363ac" x="161.413949" y="81.902703" style="fill: #1f77b4; stroke: #1f77b4"/>
     <use xlink:href="#mfd154363ac" x="166.300872" y="83.393334" style="fill: #1f77b4; stroke: #1f77b4"/>
     <use xlink:href="#mfd154363ac" x="171.30415" y="84.879844" style="fill: #1f77b4; stroke: #1f77b4"/>
     <use xlink:href="#mfd154363ac" x="176.307429" y="86.247877" style="fill: #1f77b4; stroke: #1f77b4"/>
     <use xlink:href="#mfd154363ac" x="181.194352" y="87.516625" style="fill: #1f77b4; stroke: #1f77b4"/>
     <use xlink:href="#mfd154363ac" x="186.19763" y="89.173453" style="fill: #1f77b4; stroke: #1f77b4"/>
     <use xlink:href="#mfd154363ac" x="191.200909" y="90.420387" style="fill: #1f77b4; stroke: #1f77b4"/>
     <use xlink:href="#mfd154363ac" x="196.087832" y="92.143105" style="fill: #1f77b4; stroke: #1f77b4"/>
     <use xlink:href="#mfd154363ac" x="200.974755" y="93.341381" style="fill: #1f77b4; stroke: #1f77b4"/>
     <use xlink:href="#mfd154363ac" x="205.978033" y="94.337828" style="fill: #1f77b4; stroke: #1f77b4"/>
     <use xlink:href="#mfd154363ac" x="210.981312" y="93.304473" style="fill: #1f77b4; stroke: #1f77b4"/>
     <use xlink:href="#mfd154363ac" x="215.868235" y="89.756085" style="fill: #1f77b4; stroke: #1f77b4"/>
     <use xlink:href="#mfd154363ac" x="220.871514" y="90.341143" style="fill: #1f77b4; stroke: #1f77b4"/>
     <use xlink:href="#mfd154363ac" x="225.874792" y="97.841767" style="fill: #1f77b4; stroke: #1f77b4"/>
     <use xlink:href="#mfd154363ac" x="230.761715" y="112.053766" style="fill: #1f77b4; stroke: #1f77b4"/>
     <use xlink:href="#mfd154363ac" x="235.764994" y="134.09178" style="fill: #1f77b4; stroke: #1f77b4"/>
     <use xlink:href="#mfd154363ac" x="240.768272" y="164.474403" style="fill: #1f77b4; stroke: #1f77b4"/>
    </g>
   </g>
   <g id="PathCollection_2">
    <defs>
     <path id="m40209256fb" d="M -1.118034 1.118034 
L 1.118034 -1.118034 
M -1.118034 -1.118034 
L 1.118034 1.118034 
" style="stroke: #ff7f0e"/>
    </defs>
    <g clip-path="url(#pc82b5c91ce)">
     <use xlink:href="#m40209256fb" x="76.125504" y="56.240855" style="fill: #ff7f0e; stroke: #ff7f0e"/>
     <use xlink:href="#m40209256fb" x="79.034387" y="57.871067" style="fill: #ff7f0e; stroke: #ff7f0e"/>
     <use xlink:href="#m40209256fb" x="81.94327" y="59.56177" style="fill: #ff7f0e; stroke: #ff7f0e"/>
     <use xlink:href="#m40209256fb" x="84.852153" y="61.2021" style="fill: #ff7f0e; stroke: #ff7f0e"/>
     <use xlink:href="#m40209256fb" x="87.761035" y="62.895431" style="fill: #ff7f0e; stroke: #ff7f0e"/>
     <use xlink:href="#m40209256fb" x="90.669918" y="64.538435" style="fill: #ff7f0e; stroke: #ff7f0e"/>
     <use xlink:href="#m40209256fb" x="93.695156" y="66.28793" style="fill: #ff7f0e; stroke: #ff7f0e"/>
     <use xlink:href="#m40209256fb" x="96.604039" y="67.90277" style="fill: #ff7f0e; stroke: #ff7f0e"/>
     <use xlink:href="#m40209256fb" x="99.512922" y="69.609991" style="fill: #ff7f0e; stroke: #ff7f0e"/>
     <use xlink:href="#m40209256fb" x="102.421805" y="71.3218" style="fill: #ff7f0e; stroke: #ff7f0e"/>
     <use xlink:href="#m40209256fb" x="105.330688" y="72.944671" style="fill: #ff7f0e; stroke: #ff7f0e"/>
     <use xlink:href="#m40209256fb" x="108.355926" y="74.698894" style="fill: #ff7f0e; stroke: #ff7f0e"/>
     <use xlink:href="#m40209256fb" x="111.264809" y="76.319439" style="fill: #ff7f0e; stroke: #ff7f0e"/>
     <use xlink:href="#m40209256fb" x="114.173691" y="78.053397" style="fill: #ff7f0e; stroke: #ff7f0e"/>
     <use xlink:href="#m40209256fb" x="117.082574" y="79.543858" style="fill: #ff7f0e; stroke: #ff7f0e"/>
     <use xlink:href="#m40209256fb" x="119.991457" y="81.305852" style="fill: #ff7f0e; stroke: #ff7f0e"/>
     <use xlink:href="#m40209256fb" x="123.016695" y="83.137144" style="fill: #ff7f0e; stroke: #ff7f0e"/>
     <use xlink:href="#m40209256fb" x="125.925578" y="84.869123" style="fill: #ff7f0e; stroke: #ff7f0e"/>
     <use xlink:href="#m40209256fb" x="128.834461" y="86.294689" style="fill: #ff7f0e; stroke: #ff7f0e"/>
     <use xlink:href="#m40209256fb" x="131.743344" y="88.064384" style="fill: #ff7f0e; stroke: #ff7f0e"/>
     <use xlink:href="#m40209256fb" x="134.652227" y="89.682201" style="fill: #ff7f0e; stroke: #ff7f0e"/>
     <use xlink:href="#m40209256fb" x="137.677465" y="91.537804" style="fill: #ff7f0e; stroke: #ff7f0e"/>
     <use xlink:href="#m40209256fb" x="140.586347" y="92.73504" style="fill: #ff7f0e; stroke: #ff7f0e"/>
     <use xlink:href="#m40209256fb" x="143.49523" y="93.054505" style="fill: #ff7f0e; stroke: #ff7f0e"/>
     <use xlink:href="#m40209256fb" x="146.404113" y="92.191975" style="fill: #ff7f0e; stroke: #ff7f0e"/>
     <use xlink:href="#m40209256fb" x="149.312996" y="91.937273" style="fill: #ff7f0e; stroke: #ff7f0e"/>
     <use xlink:href="#m40209256fb" x="152.338234" y="94.362802" style="fill: #ff7f0e; stroke: #ff7f0e"/>
     <use xlink:href="#m40209256fb" x="155.247117" y="101.685803" style="fill: #ff7f0e; stroke: #ff7f0e"/>
     <use xlink:href="#m40209256fb" x="158.156" y="113.530781" style="fill: #ff7f0e; stroke: #ff7f0e"/>
     <use xlink:href="#m40209256fb" x="161.064883" y="130.742452" style="fill: #ff7f0e; stroke: #ff7f0e"/>
     <use xlink:href="#m40209256fb" x="163.973765" y="154.400802" style="fill: #ff7f0e; stroke: #ff7f0e"/>
    </g>
   </g>
   <g id="PathCollection_3">
    <defs>
     <path id="m33e3c756d2" d="M -1.118034 1.118034 
L 1.118034 -1.118034 
M -1.118034 -1.118034 
L 1.118034 1.118034 
" style="stroke: #2ca02c"/>
    </defs>
    <g clip-path="url(#pc82b5c91ce)">
     <use xlink:href="#m33e3c756d2" x="68.096987" y="50.45845" style="fill: #2ca02c; stroke: #2ca02c"/>
     <use xlink:href="#m33e3c756d2" x="69.842317" y="52.448252" style="fill: #2ca02c; stroke: #2ca02c"/>
     <use xlink:href="#m33e3c756d2" x="71.587647" y="54.396995" style="fill: #2ca02c; stroke: #2ca02c"/>
     <use xlink:href="#m33e3c756d2" x="73.332977" y="56.412257" style="fill: #2ca02c; stroke: #2ca02c"/>
     <use xlink:href="#m33e3c756d2" x="75.194662" y="58.531512" style="fill: #2ca02c; stroke: #2ca02c"/>
     <use xlink:href="#m33e3c756d2" x="76.939991" y="60.486264" style="fill: #2ca02c; stroke: #2ca02c"/>
     <use xlink:href="#m33e3c756d2" x="78.685321" y="62.488528" style="fill: #2ca02c; stroke: #2ca02c"/>
     <use xlink:href="#m33e3c756d2" x="80.430651" y="64.480887" style="fill: #2ca02c; stroke: #2ca02c"/>
     <use xlink:href="#m33e3c756d2" x="82.17598" y="66.430537" style="fill: #2ca02c; stroke: #2ca02c"/>
     <use xlink:href="#m33e3c756d2" x="84.037665" y="68.518328" style="fill: #2ca02c; stroke: #2ca02c"/>
     <use xlink:href="#m33e3c756d2" x="85.782995" y="70.576054" style="fill: #2ca02c; stroke: #2ca02c"/>
     <use xlink:href="#m33e3c756d2" x="87.528325" y="72.504984" style="fill: #2ca02c; stroke: #2ca02c"/>
     <use xlink:href="#m33e3c756d2" x="89.273654" y="74.483316" style="fill: #2ca02c; stroke: #2ca02c"/>
     <use xlink:href="#m33e3c756d2" x="91.018984" y="76.491737" style="fill: #2ca02c; stroke: #2ca02c"/>
     <use xlink:href="#m33e3c756d2" x="92.880669" y="78.613986" style="fill: #2ca02c; stroke: #2ca02c"/>
     <use xlink:href="#m33e3c756d2" x="94.625999" y="80.689576" style="fill: #2ca02c; stroke: #2ca02c"/>
     <use xlink:href="#m33e3c756d2" x="96.371329" y="82.593282" style="fill: #2ca02c; stroke: #2ca02c"/>
     <use xlink:href="#m33e3c756d2" x="98.116658" y="84.512875" style="fill: #2ca02c; stroke: #2ca02c"/>
     <use xlink:href="#m33e3c756d2" x="99.861988" y="86.555088" style="fill: #2ca02c; stroke: #2ca02c"/>
     <use xlink:href="#m33e3c756d2" x="101.723673" y="88.72906" style="fill: #2ca02c; stroke: #2ca02c"/>
     <use xlink:href="#m33e3c756d2" x="103.469003" y="90.646327" style="fill: #2ca02c; stroke: #2ca02c"/>
     <use xlink:href="#m33e3c756d2" x="105.214332" y="91.351794" style="fill: #2ca02c; stroke: #2ca02c"/>
     <use xlink:href="#m33e3c756d2" x="106.959662" y="92.326731" style="fill: #2ca02c; stroke: #2ca02c"/>
     <use xlink:href="#m33e3c756d2" x="108.704992" y="92.761692" style="fill: #2ca02c; stroke: #2ca02c"/>
     <use xlink:href="#m33e3c756d2" x="110.566677" y="95.209762" style="fill: #2ca02c; stroke: #2ca02c"/>
     <use xlink:href="#m33e3c756d2" x="112.312006" y="98.545879" style="fill: #2ca02c; stroke: #2ca02c"/>
     <use xlink:href="#m33e3c756d2" x="114.057336" y="104.718066" style="fill: #2ca02c; stroke: #2ca02c"/>
     <use xlink:href="#m33e3c756d2" x="115.802666" y="112.901349" style="fill: #2ca02c; stroke: #2ca02c"/>
     <use xlink:href="#m33e3c756d2" x="117.547995" y="123.678435" style="fill: #2ca02c; stroke: #2ca02c"/>
     <use xlink:href="#m33e3c756d2" x="119.409681" y="136.405335" style="fill: #2ca02c; stroke: #2ca02c"/>
     <use xlink:href="#m33e3c756d2" x="121.15501" y="149.08329" style="fill: #2ca02c; stroke: #2ca02c"/>
    </g>
   </g>
   <g id="PathCollection_4">
    <defs>
     <path id="m8d060e6f4e" d="M -1.118034 1.118034 
L 1.118034 -1.118034 
M -1.118034 -1.118034 
L 1.118034 1.118034 
" style="stroke: #d62728"/>
    </defs>
    <g clip-path="url(#pc82b5c91ce)">
     <use xlink:href="#m8d060e6f4e" x="64.024551" y="44.767558" style="fill: #d62728; stroke: #d62728"/>
     <use xlink:href="#m8d060e6f4e" x="64.955394" y="46.813067" style="fill: #d62728; stroke: #d62728"/>
     <use xlink:href="#m8d060e6f4e" x="66.002592" y="49.150178" style="fill: #d62728; stroke: #d62728"/>
     <use xlink:href="#m8d060e6f4e" x="67.04979" y="51.498658" style="fill: #d62728; stroke: #d62728"/>
     <use xlink:href="#m8d060e6f4e" x="68.096987" y="53.846237" style="fill: #d62728; stroke: #d62728"/>
     <use xlink:href="#m8d060e6f4e" x="69.144185" y="56.249679" style="fill: #d62728; stroke: #d62728"/>
     <use xlink:href="#m8d060e6f4e" x="70.191383" y="58.514237" style="fill: #d62728; stroke: #d62728"/>
     <use xlink:href="#m8d060e6f4e" x="71.238581" y="60.938566" style="fill: #d62728; stroke: #d62728"/>
     <use xlink:href="#m8d060e6f4e" x="72.285779" y="63.222256" style="fill: #d62728; stroke: #d62728"/>
     <use xlink:href="#m8d060e6f4e" x="73.332977" y="65.502521" style="fill: #d62728; stroke: #d62728"/>
     <use xlink:href="#m8d060e6f4e" x="74.380174" y="67.873621" style="fill: #d62728; stroke: #d62728"/>
     <use xlink:href="#m8d060e6f4e" x="75.427372" y="70.191289" style="fill: #d62728; stroke: #d62728"/>
     <use xlink:href="#m8d060e6f4e" x="76.47457" y="72.787738" style="fill: #d62728; stroke: #d62728"/>
     <use xlink:href="#m8d060e6f4e" x="77.521768" y="75.024435" style="fill: #d62728; stroke: #d62728"/>
     <use xlink:href="#m8d060e6f4e" x="78.568966" y="77.072227" style="fill: #d62728; stroke: #d62728"/>
     <use xlink:href="#m8d060e6f4e" x="79.616163" y="79.656901" style="fill: #d62728; stroke: #d62728"/>
     <use xlink:href="#m8d060e6f4e" x="80.547006" y="81.791825" style="fill: #d62728; stroke: #d62728"/>
     <use xlink:href="#m8d060e6f4e" x="81.594204" y="83.840633" style="fill: #d62728; stroke: #d62728"/>
     <use xlink:href="#m8d060e6f4e" x="82.641402" y="86.472541" style="fill: #d62728; stroke: #d62728"/>
     <use xlink:href="#m8d060e6f4e" x="83.688599" y="88.513451" style="fill: #d62728; stroke: #d62728"/>
     <use xlink:href="#m8d060e6f4e" x="84.735797" y="90.556181" style="fill: #d62728; stroke: #d62728"/>
     <use xlink:href="#m8d060e6f4e" x="85.782995" y="91.691888" style="fill: #d62728; stroke: #d62728"/>
     <use xlink:href="#m8d060e6f4e" x="86.830193" y="93.284457" style="fill: #d62728; stroke: #d62728"/>
     <use xlink:href="#m8d060e6f4e" x="87.877391" y="96.3143" style="fill: #d62728; stroke: #d62728"/>
     <use xlink:href="#m8d060e6f4e" x="88.924588" y="99.295477" style="fill: #d62728; stroke: #d62728"/>
     <use xlink:href="#m8d060e6f4e" x="89.971786" y="103.532471" style="fill: #d62728; stroke: #d62728"/>
     <use xlink:href="#m8d060e6f4e" x="91.018984" y="110.845702" style="fill: #d62728; stroke: #d62728"/>
     <use xlink:href="#m8d060e6f4e" x="92.066182" y="117.121288" style="fill: #d62728; stroke: #d62728"/>
     <use xlink:href="#m8d060e6f4e" x="93.11338" y="126.413934" style="fill: #d62728; stroke: #d62728"/>
     <use xlink:href="#m8d060e6f4e" x="94.160578" y="142.710089" style="fill: #d62728; stroke: #d62728"/>
     <use xlink:href="#m8d060e6f4e" x="95.207775" y="144.276221" style="fill: #d62728; stroke: #d62728"/>
    </g>
   </g>
   <g id="PathCollection_5">
    <defs>
     <path id="mc2ccca35b6" d="M -1.118034 1.118034 
L 1.118034 -1.118034 
M -1.118034 -1.118034 
L 1.118034 1.118034 
" style="stroke: #9467bd"/>
    </defs>
    <g clip-path="url(#pc82b5c91ce)">
     <use xlink:href="#mc2ccca35b6" x="61.930156" y="38.997291" style="fill: #9467bd; stroke: #9467bd"/>
     <use xlink:href="#mc2ccca35b6" x="62.511932" y="41.536777" style="fill: #9467bd; stroke: #9467bd"/>
     <use xlink:href="#mc2ccca35b6" x="63.210064" y="44.564416" style="fill: #9467bd; stroke: #9467bd"/>
     <use xlink:href="#mc2ccca35b6" x="63.791841" y="47.050912" style="fill: #9467bd; stroke: #9467bd"/>
     <use xlink:href="#mc2ccca35b6" x="64.373617" y="49.600098" style="fill: #9467bd; stroke: #9467bd"/>
     <use xlink:href="#mc2ccca35b6" x="65.071749" y="52.691435" style="fill: #9467bd; stroke: #9467bd"/>
     <use xlink:href="#mc2ccca35b6" x="65.769881" y="55.673595" style="fill: #9467bd; stroke: #9467bd"/>
     <use xlink:href="#mc2ccca35b6" x="66.351658" y="58.255369" style="fill: #9467bd; stroke: #9467bd"/>
     <use xlink:href="#mc2ccca35b6" x="66.933434" y="60.693622" style="fill: #9467bd; stroke: #9467bd"/>
     <use xlink:href="#mc2ccca35b6" x="67.631566" y="63.749321" style="fill: #9467bd; stroke: #9467bd"/>
     <use xlink:href="#mc2ccca35b6" x="68.329698" y="66.928382" style="fill: #9467bd; stroke: #9467bd"/>
     <use xlink:href="#mc2ccca35b6" x="68.911475" y="69.257904" style="fill: #9467bd; stroke: #9467bd"/>
     <use xlink:href="#mc2ccca35b6" x="69.493251" y="71.965765" style="fill: #9467bd; stroke: #9467bd"/>
     <use xlink:href="#mc2ccca35b6" x="70.191383" y="74.858573" style="fill: #9467bd; stroke: #9467bd"/>
     <use xlink:href="#mc2ccca35b6" x="70.889515" y="77.834288" style="fill: #9467bd; stroke: #9467bd"/>
     <use xlink:href="#mc2ccca35b6" x="71.471292" y="80.457052" style="fill: #9467bd; stroke: #9467bd"/>
     <use xlink:href="#mc2ccca35b6" x="72.053068" y="82.908423" style="fill: #9467bd; stroke: #9467bd"/>
     <use xlink:href="#mc2ccca35b6" x="72.7512" y="85.914309" style="fill: #9467bd; stroke: #9467bd"/>
     <use xlink:href="#mc2ccca35b6" x="73.332977" y="88.163834" style="fill: #9467bd; stroke: #9467bd"/>
     <use xlink:href="#mc2ccca35b6" x="73.914753" y="89.92983" style="fill: #9467bd; stroke: #9467bd"/>
     <use xlink:href="#mc2ccca35b6" x="74.612885" y="93.762771" style="fill: #9467bd; stroke: #9467bd"/>
     <use xlink:href="#mc2ccca35b6" x="75.311017" y="96.510276" style="fill: #9467bd; stroke: #9467bd"/>
     <use xlink:href="#mc2ccca35b6" x="75.892793" y="97.489051" style="fill: #9467bd; stroke: #9467bd"/>
     <use xlink:href="#mc2ccca35b6" x="76.47457" y="103.296307" style="fill: #9467bd; stroke: #9467bd"/>
     <use xlink:href="#mc2ccca35b6" x="77.172702" y="108.287321" style="fill: #9467bd; stroke: #9467bd"/>
     <use xlink:href="#mc2ccca35b6" x="77.870834" y="113.654558" style="fill: #9467bd; stroke: #9467bd"/>
     <use xlink:href="#mc2ccca35b6" x="78.45261" y="119.939077" style="fill: #9467bd; stroke: #9467bd"/>
     <use xlink:href="#mc2ccca35b6" x="79.034387" y="122.466577" style="fill: #9467bd; stroke: #9467bd"/>
     <use xlink:href="#mc2ccca35b6" x="79.732519" y="141.805048" style="fill: #9467bd; stroke: #9467bd"/>
     <use xlink:href="#mc2ccca35b6" x="80.430651" y="147.759144" style="fill: #9467bd; stroke: #9467bd"/>
     <use xlink:href="#mc2ccca35b6" x="81.012427" y="144.276221" style="fill: #9467bd; stroke: #9467bd"/>
    </g>
   </g>
   <g id="PathCollection_6">
    <defs>
     <path id="mc278b53013" d="M -1.118034 1.118034 
L 1.118034 -1.118034 
M -1.118034 -1.118034 
L 1.118034 1.118034 
" style="stroke: #8c564b"/>
    </defs>
    <g clip-path="url(#pc82b5c91ce)">
     <use xlink:href="#mc278b53013" x="60.882958" y="33.481753" style="fill: #8c564b; stroke: #8c564b"/>
     <use xlink:href="#mc278b53013" x="61.232024" y="36.28425" style="fill: #8c564b; stroke: #8c564b"/>
     <use xlink:href="#mc278b53013" x="61.58109" y="39.207008" style="fill: #8c564b; stroke: #8c564b"/>
     <use xlink:href="#mc278b53013" x="61.930156" y="42.047002" style="fill: #8c564b; stroke: #8c564b"/>
     <use xlink:href="#mc278b53013" x="62.279222" y="44.94326" style="fill: #8c564b; stroke: #8c564b"/>
     <use xlink:href="#mc278b53013" x="62.628288" y="47.841248" style="fill: #8c564b; stroke: #8c564b"/>
     <use xlink:href="#mc278b53013" x="62.977354" y="50.760171" style="fill: #8c564b; stroke: #8c564b"/>
     <use xlink:href="#mc278b53013" x="63.32642" y="53.563989" style="fill: #8c564b; stroke: #8c564b"/>
     <use xlink:href="#mc278b53013" x="63.675486" y="56.409931" style="fill: #8c564b; stroke: #8c564b"/>
     <use xlink:href="#mc278b53013" x="64.024551" y="59.27308" style="fill: #8c564b; stroke: #8c564b"/>
     <use xlink:href="#mc278b53013" x="64.373617" y="62.207277" style="fill: #8c564b; stroke: #8c564b"/>
     <use xlink:href="#mc278b53013" x="64.722683" y="65.187443" style="fill: #8c564b; stroke: #8c564b"/>
     <use xlink:href="#mc278b53013" x="65.071749" y="68.020006" style="fill: #8c564b; stroke: #8c564b"/>
     <use xlink:href="#mc278b53013" x="65.420815" y="70.618344" style="fill: #8c564b; stroke: #8c564b"/>
     <use xlink:href="#mc278b53013" x="65.886236" y="74.618432" style="fill: #8c564b; stroke: #8c564b"/>
     <use xlink:href="#mc278b53013" x="66.235302" y="77.614243" style="fill: #8c564b; stroke: #8c564b"/>
     <use xlink:href="#mc278b53013" x="66.584368" y="80.10252" style="fill: #8c564b; stroke: #8c564b"/>
     <use xlink:href="#mc278b53013" x="66.933434" y="83.575664" style="fill: #8c564b; stroke: #8c564b"/>
     <use xlink:href="#mc278b53013" x="67.2825" y="85.627267" style="fill: #8c564b; stroke: #8c564b"/>
     <use xlink:href="#mc278b53013" x="67.631566" y="89.24148" style="fill: #8c564b; stroke: #8c564b"/>
     <use xlink:href="#mc278b53013" x="67.980632" y="91.534956" style="fill: #8c564b; stroke: #8c564b"/>
     <use xlink:href="#mc278b53013" x="68.329698" y="94.006129" style="fill: #8c564b; stroke: #8c564b"/>
     <use xlink:href="#mc278b53013" x="68.678764" y="96.091172" style="fill: #8c564b; stroke: #8c564b"/>
     <use xlink:href="#mc278b53013" x="69.02783" y="101.00908" style="fill: #8c564b; stroke: #8c564b"/>
     <use xlink:href="#mc278b53013" x="69.376896" y="104.298962" style="fill: #8c564b; stroke: #8c564b"/>
     <use xlink:href="#mc278b53013" x="69.725962" y="110.335258" style="fill: #8c564b; stroke: #8c564b"/>
     <use xlink:href="#mc278b53013" x="70.075028" y="111.577203" style="fill: #8c564b; stroke: #8c564b"/>
     <use xlink:href="#mc278b53013" x="70.424094" y="117.724339" style="fill: #8c564b; stroke: #8c564b"/>
     <use xlink:href="#mc278b53013" x="70.77316" y="125.402185" style="fill: #8c564b; stroke: #8c564b"/>
     <use xlink:href="#mc278b53013" x="71.238581" y="128.885107" style="fill: #8c564b; stroke: #8c564b"/>
     <use xlink:href="#mc278b53013" x="71.587647" y="128.885107" style="fill: #8c564b; stroke: #8c564b"/>
    </g>
   </g>
   <g id="PathCollection_7">
    <defs>
     <path id="mda6c96699e" d="M -1.118034 1.118034 
L 1.118034 -1.118034 
M -1.118034 -1.118034 
L 1.118034 1.118034 
" style="stroke: #e377c2"/>
    </defs>
    <g clip-path="url(#pc82b5c91ce)">
     <use xlink:href="#mda6c96699e" x="60.417537" y="29.087472" style="fill: #e377c2; stroke: #e377c2"/>
     <use xlink:href="#mda6c96699e" x="60.650247" y="32.56421" style="fill: #e377c2; stroke: #e377c2"/>
     <use xlink:href="#mda6c96699e" x="60.882958" y="36.059409" style="fill: #e377c2; stroke: #e377c2"/>
     <use xlink:href="#mda6c96699e" x="61.115669" y="39.506045" style="fill: #e377c2; stroke: #e377c2"/>
     <use xlink:href="#mda6c96699e" x="61.348379" y="43.0583" style="fill: #e377c2; stroke: #e377c2"/>
     <use xlink:href="#mda6c96699e" x="61.58109" y="46.494744" style="fill: #e377c2; stroke: #e377c2"/>
     <use xlink:href="#mda6c96699e" x="61.813801" y="49.941754" style="fill: #e377c2; stroke: #e377c2"/>
     <use xlink:href="#mda6c96699e" x="62.046511" y="53.398568" style="fill: #e377c2; stroke: #e377c2"/>
     <use xlink:href="#mda6c96699e" x="62.279222" y="56.98655" style="fill: #e377c2; stroke: #e377c2"/>
     <use xlink:href="#mda6c96699e" x="62.511932" y="60.398121" style="fill: #e377c2; stroke: #e377c2"/>
     <use xlink:href="#mda6c96699e" x="62.744643" y="63.910206" style="fill: #e377c2; stroke: #e377c2"/>
     <use xlink:href="#mda6c96699e" x="62.977354" y="67.544478" style="fill: #e377c2; stroke: #e377c2"/>
     <use xlink:href="#mda6c96699e" x="63.210064" y="70.800261" style="fill: #e377c2; stroke: #e377c2"/>
     <use xlink:href="#mda6c96699e" x="63.442775" y="74.286497" style="fill: #e377c2; stroke: #e377c2"/>
     <use xlink:href="#mda6c96699e" x="63.675486" y="77.889561" style="fill: #e377c2; stroke: #e377c2"/>
     <use xlink:href="#mda6c96699e" x="63.908196" y="81.711808" style="fill: #e377c2; stroke: #e377c2"/>
     <use xlink:href="#mda6c96699e" x="64.140907" y="84.904698" style="fill: #e377c2; stroke: #e377c2"/>
     <use xlink:href="#mda6c96699e" x="64.373617" y="88.508243" style="fill: #e377c2; stroke: #e377c2"/>
     <use xlink:href="#mda6c96699e" x="64.606328" y="91.066625" style="fill: #e377c2; stroke: #e377c2"/>
     <use xlink:href="#mda6c96699e" x="64.839039" y="96.059764" style="fill: #e377c2; stroke: #e377c2"/>
     <use xlink:href="#mda6c96699e" x="65.071749" y="97.867524" style="fill: #e377c2; stroke: #e377c2"/>
     <use xlink:href="#mda6c96699e" x="65.30446" y="104.21754" style="fill: #e377c2; stroke: #e377c2"/>
     <use xlink:href="#mda6c96699e" x="65.537171" y="109.698675" style="fill: #e377c2; stroke: #e377c2"/>
     <use xlink:href="#mda6c96699e" x="65.769881" y="110.335258" style="fill: #e377c2; stroke: #e377c2"/>
     <use xlink:href="#mda6c96699e" x="66.002592" y="114.505743" style="fill: #e377c2; stroke: #e377c2"/>
     <use xlink:href="#mda6c96699e" x="66.235302" y="113.493994" style="fill: #e377c2; stroke: #e377c2"/>
     <use xlink:href="#mda6c96699e" x="66.468013" y="124.497144" style="fill: #e377c2; stroke: #e377c2"/>
     <use xlink:href="#mda6c96699e" x="66.700724" y="138.322126" style="fill: #e377c2; stroke: #e377c2"/>
     <use xlink:href="#mda6c96699e" x="66.933434" y="138.322126" style="fill: #e377c2; stroke: #e377c2"/>
     <use xlink:href="#mda6c96699e" x="67.166145" y="132.36803" style="fill: #e377c2; stroke: #e377c2"/>
     <use xlink:href="#mda6c96699e" x="67.398856" y="138.322126" style="fill: #e377c2; stroke: #e377c2"/>
    </g>
   </g>
   <g id="matplotlib.axis_1">
    <g id="xtick_1">
     <g id="line2d_1">
      <defs>
       <path id="m8420c9d96a" d="M 0 0 
L 0 3.5 
" style="stroke: #000000; stroke-width: 0.8"/>
      </defs>
      <g>
       <use xlink:href="#m8420c9d96a" x="59.83576" y="171.24375" style="stroke: #000000; stroke-width: 0.8"/>
      </g>
     </g>
     <g id="text_1">
      <!-- 0 -->
      <g transform="translate(56.65451 185.842187) scale(0.1 -0.1)">
       <defs>
        <path id="DejaVuSans-30" d="M 2034 4250 
Q 1547 4250 1301 3770 
Q 1056 3291 1056 2328 
Q 1056 1369 1301 889 
Q 1547 409 2034 409 
Q 2525 409 2770 889 
Q 3016 1369 3016 2328 
Q 3016 3291 2770 3770 
Q 2525 4250 2034 4250 
z
M 2034 4750 
Q 2819 4750 3233 4129 
Q 3647 3509 3647 2328 
Q 3647 1150 3233 529 
Q 2819 -91 2034 -91 
Q 1250 -91 836 529 
Q 422 1150 422 2328 
Q 422 3509 836 4129 
Q 1250 4750 2034 4750 
z
" transform="scale(0.015625)"/>
       </defs>
       <use xlink:href="#DejaVuSans-30"/>
      </g>
     </g>
    </g>
    <g id="xtick_2">
     <g id="line2d_2">
      <g>
       <use xlink:href="#m8420c9d96a" x="106.377885" y="171.24375" style="stroke: #000000; stroke-width: 0.8"/>
      </g>
     </g>
     <g id="text_2">
      <!-- 200 -->
      <g transform="translate(96.834135 185.842187) scale(0.1 -0.1)">
       <defs>
        <path id="DejaVuSans-32" d="M 1228 531 
L 3431 531 
L 3431 0 
L 469 0 
L 469 531 
Q 828 903 1448 1529 
Q 2069 2156 2228 2338 
Q 2531 2678 2651 2914 
Q 2772 3150 2772 3378 
Q 2772 3750 2511 3984 
Q 2250 4219 1831 4219 
Q 1534 4219 1204 4116 
Q 875 4013 500 3803 
L 500 4441 
Q 881 4594 1212 4672 
Q 1544 4750 1819 4750 
Q 2544 4750 2975 4387 
Q 3406 4025 3406 3419 
Q 3406 3131 3298 2873 
Q 3191 2616 2906 2266 
Q 2828 2175 2409 1742 
Q 1991 1309 1228 531 
z
" transform="scale(0.015625)"/>
       </defs>
       <use xlink:href="#DejaVuSans-32"/>
       <use xlink:href="#DejaVuSans-30" x="63.623047"/>
       <use xlink:href="#DejaVuSans-30" x="127.246094"/>
      </g>
     </g>
    </g>
    <g id="xtick_3">
     <g id="line2d_3">
      <g>
       <use xlink:href="#m8420c9d96a" x="152.920011" y="171.24375" style="stroke: #000000; stroke-width: 0.8"/>
      </g>
     </g>
     <g id="text_3">
      <!-- 400 -->
      <g transform="translate(143.376261 185.842187) scale(0.1 -0.1)">
       <defs>
        <path id="DejaVuSans-34" d="M 2419 4116 
L 825 1625 
L 2419 1625 
L 2419 4116 
z
M 2253 4666 
L 3047 4666 
L 3047 1625 
L 3713 1625 
L 3713 1100 
L 3047 1100 
L 3047 0 
L 2419 0 
L 2419 1100 
L 313 1100 
L 313 1709 
L 2253 4666 
z
" transform="scale(0.015625)"/>
       </defs>
       <use xlink:href="#DejaVuSans-34"/>
       <use xlink:href="#DejaVuSans-30" x="63.623047"/>
       <use xlink:href="#DejaVuSans-30" x="127.246094"/>
      </g>
     </g>
    </g>
    <g id="xtick_4">
     <g id="line2d_4">
      <g>
       <use xlink:href="#m8420c9d96a" x="199.462136" y="171.24375" style="stroke: #000000; stroke-width: 0.8"/>
      </g>
     </g>
     <g id="text_4">
      <!-- 600 -->
      <g transform="translate(189.918386 185.842187) scale(0.1 -0.1)">
       <defs>
        <path id="DejaVuSans-36" d="M 2113 2584 
Q 1688 2584 1439 2293 
Q 1191 2003 1191 1497 
Q 1191 994 1439 701 
Q 1688 409 2113 409 
Q 2538 409 2786 701 
Q 3034 994 3034 1497 
Q 3034 2003 2786 2293 
Q 2538 2584 2113 2584 
z
M 3366 4563 
L 3366 3988 
Q 3128 4100 2886 4159 
Q 2644 4219 2406 4219 
Q 1781 4219 1451 3797 
Q 1122 3375 1075 2522 
Q 1259 2794 1537 2939 
Q 1816 3084 2150 3084 
Q 2853 3084 3261 2657 
Q 3669 2231 3669 1497 
Q 3669 778 3244 343 
Q 2819 -91 2113 -91 
Q 1303 -91 875 529 
Q 447 1150 447 2328 
Q 447 3434 972 4092 
Q 1497 4750 2381 4750 
Q 2619 4750 2861 4703 
Q 3103 4656 3366 4563 
z
" transform="scale(0.015625)"/>
       </defs>
       <use xlink:href="#DejaVuSans-36"/>
       <use xlink:href="#DejaVuSans-30" x="63.623047"/>
       <use xlink:href="#DejaVuSans-30" x="127.246094"/>
      </g>
     </g>
    </g>
    <g id="xtick_5">
     <g id="line2d_5">
      <g>
       <use xlink:href="#m8420c9d96a" x="246.004261" y="171.24375" style="stroke: #000000; stroke-width: 0.8"/>
      </g>
     </g>
     <g id="text_5">
      <!-- 800 -->
      <g transform="translate(236.460511 185.842187) scale(0.1 -0.1)">
       <defs>
        <path id="DejaVuSans-38" d="M 2034 2216 
Q 1584 2216 1326 1975 
Q 1069 1734 1069 1313 
Q 1069 891 1326 650 
Q 1584 409 2034 409 
Q 2484 409 2743 651 
Q 3003 894 3003 1313 
Q 3003 1734 2745 1975 
Q 2488 2216 2034 2216 
z
M 1403 2484 
Q 997 2584 770 2862 
Q 544 3141 544 3541 
Q 544 4100 942 4425 
Q 1341 4750 2034 4750 
Q 2731 4750 3128 4425 
Q 3525 4100 3525 3541 
Q 3525 3141 3298 2862 
Q 3072 2584 2669 2484 
Q 3125 2378 3379 2068 
Q 3634 1759 3634 1313 
Q 3634 634 3220 271 
Q 2806 -91 2034 -91 
Q 1263 -91 848 271 
Q 434 634 434 1313 
Q 434 1759 690 2068 
Q 947 2378 1403 2484 
z
M 1172 3481 
Q 1172 3119 1398 2916 
Q 1625 2713 2034 2713 
Q 2441 2713 2670 2916 
Q 2900 3119 2900 3481 
Q 2900 3844 2670 4047 
Q 2441 4250 2034 4250 
Q 1625 4250 1398 4047 
Q 1172 3844 1172 3481 
z
" transform="scale(0.015625)"/>
       </defs>
       <use xlink:href="#DejaVuSans-38"/>
       <use xlink:href="#DejaVuSans-30" x="63.623047"/>
       <use xlink:href="#DejaVuSans-30" x="127.246094"/>
      </g>
     </g>
    </g>
    <g id="text_6">
     <!-- $k$ -->
     <g transform="translate(147.692904 199.520312) scale(0.1 -0.1)">
      <defs>
       <path id="DejaVuSans-Oblique-6b" d="M 1172 4863 
L 1747 4863 
L 1197 2028 
L 3169 3500 
L 3916 3500 
L 1716 1825 
L 3322 0 
L 2625 0 
L 1131 1709 
L 800 0 
L 225 0 
L 1172 4863 
z
" transform="scale(0.015625)"/>
      </defs>
      <use xlink:href="#DejaVuSans-Oblique-6b" transform="translate(0 0.015625)"/>
     </g>
    </g>
   </g>
   <g id="matplotlib.axis_2">
    <g id="ytick_1">
     <g id="line2d_6">
      <defs>
       <path id="mc3900e660f" d="M 0 0 
L -3.5 0 
" style="stroke: #000000; stroke-width: 0.8"/>
      </defs>
      <g>
       <use xlink:href="#mc3900e660f" x="51.4" y="138.322126" style="stroke: #000000; stroke-width: 0.8"/>
      </g>
     </g>
     <g id="text_7">
      <!-- $\mathdefault{10^{-6}}$ -->
      <g transform="translate(20.9 142.121344) scale(0.1 -0.1)">
       <defs>
        <path id="DejaVuSans-31" d="M 794 531 
L 1825 531 
L 1825 4091 
L 703 3866 
L 703 4441 
L 1819 4666 
L 2450 4666 
L 2450 531 
L 3481 531 
L 3481 0 
L 794 0 
L 794 531 
z
" transform="scale(0.015625)"/>
        <path id="DejaVuSans-2212" d="M 678 2272 
L 4684 2272 
L 4684 1741 
L 678 1741 
L 678 2272 
z
" transform="scale(0.015625)"/>
       </defs>
       <use xlink:href="#DejaVuSans-31" transform="translate(0 0.765625)"/>
       <use xlink:href="#DejaVuSans-30" transform="translate(63.623047 0.765625)"/>
       <use xlink:href="#DejaVuSans-2212" transform="translate(128.203125 39.046875) scale(0.7)"/>
       <use xlink:href="#DejaVuSans-36" transform="translate(186.855469 39.046875) scale(0.7)"/>
      </g>
     </g>
    </g>
    <g id="ytick_2">
     <g id="line2d_7">
      <g>
       <use xlink:href="#mc3900e660f" x="51.4" y="98.763971" style="stroke: #000000; stroke-width: 0.8"/>
      </g>
     </g>
     <g id="text_8">
      <!-- $\mathdefault{10^{-4}}$ -->
      <g transform="translate(20.9 102.56319) scale(0.1 -0.1)">
       <use xlink:href="#DejaVuSans-31" transform="translate(0 0.684375)"/>
       <use xlink:href="#DejaVuSans-30" transform="translate(63.623047 0.684375)"/>
       <use xlink:href="#DejaVuSans-2212" transform="translate(128.203125 38.965625) scale(0.7)"/>
       <use xlink:href="#DejaVuSans-34" transform="translate(186.855469 38.965625) scale(0.7)"/>
      </g>
     </g>
    </g>
    <g id="ytick_3">
     <g id="line2d_8">
      <g>
       <use xlink:href="#mc3900e660f" x="51.4" y="59.205816" style="stroke: #000000; stroke-width: 0.8"/>
      </g>
     </g>
     <g id="text_9">
      <!-- $\mathdefault{10^{-2}}$ -->
      <g transform="translate(20.9 63.005035) scale(0.1 -0.1)">
       <use xlink:href="#DejaVuSans-31" transform="translate(0 0.765625)"/>
       <use xlink:href="#DejaVuSans-30" transform="translate(63.623047 0.765625)"/>
       <use xlink:href="#DejaVuSans-2212" transform="translate(128.203125 39.046875) scale(0.7)"/>
       <use xlink:href="#DejaVuSans-32" transform="translate(186.855469 39.046875) scale(0.7)"/>
      </g>
     </g>
    </g>
    <g id="text_10">
     <!-- $p(k)$ -->
     <g transform="translate(14.8 106.780937) rotate(-90) scale(0.1 -0.1)">
      <defs>
       <path id="DejaVuSans-Oblique-70" d="M 3175 2156 
Q 3175 2616 2975 2859 
Q 2775 3103 2400 3103 
Q 2144 3103 1911 2972 
Q 1678 2841 1497 2591 
Q 1319 2344 1212 1994 
Q 1106 1644 1106 1300 
Q 1106 863 1306 627 
Q 1506 391 1875 391 
Q 2147 391 2380 519 
Q 2613 647 2778 891 
Q 2956 1147 3065 1494 
Q 3175 1841 3175 2156 
z
M 1394 2969 
Q 1625 3272 1939 3428 
Q 2253 3584 2638 3584 
Q 3175 3584 3472 3232 
Q 3769 2881 3769 2247 
Q 3769 1728 3584 1258 
Q 3400 788 3053 416 
Q 2822 169 2531 39 
Q 2241 -91 1919 -91 
Q 1547 -91 1294 64 
Q 1041 219 916 525 
L 556 -1331 
L -19 -1331 
L 922 3500 
L 1497 3500 
L 1394 2969 
z
" transform="scale(0.015625)"/>
       <path id="DejaVuSans-28" d="M 1984 4856 
Q 1566 4138 1362 3434 
Q 1159 2731 1159 2009 
Q 1159 1288 1364 580 
Q 1569 -128 1984 -844 
L 1484 -844 
Q 1016 -109 783 600 
Q 550 1309 550 2009 
Q 550 2706 781 3412 
Q 1013 4119 1484 4856 
L 1984 4856 
z
" transform="scale(0.015625)"/>
       <path id="DejaVuSans-29" d="M 513 4856 
L 1013 4856 
Q 1481 4119 1714 3412 
Q 1947 2706 1947 2009 
Q 1947 1309 1714 600 
Q 1481 -109 1013 -844 
L 513 -844 
Q 928 -128 1133 580 
Q 1338 1288 1338 2009 
Q 1338 2731 1133 3434 
Q 928 4138 513 4856 
z
" transform="scale(0.015625)"/>
      </defs>
      <use xlink:href="#DejaVuSans-Oblique-70" transform="translate(0 0.015625)"/>
      <use xlink:href="#DejaVuSans-28" transform="translate(63.476562 0.015625)"/>
      <use xlink:href="#DejaVuSans-Oblique-6b" transform="translate(102.490234 0.015625)"/>
      <use xlink:href="#DejaVuSans-29" transform="translate(160.400391 0.015625)"/>
     </g>
    </g>
   </g>
   <g id="line2d_9">
    <path d="M 92.066182 62.041123 
L 96.953105 63.480273 
L 101.840028 64.838361 
L 106.843307 66.291691 
L 111.846585 67.73545 
L 116.733508 69.151525 
L 121.736787 70.593172 
L 126.740065 72.010689 
L 131.626988 73.407487 
L 136.630267 74.872995 
L 141.633545 76.214362 
L 146.520468 77.7354 
L 151.407392 79.126354 
L 156.41067 80.561496 
L 161.413949 81.902703 
L 166.300872 83.393334 
L 171.30415 84.879844 
L 176.307429 86.247877 
L 181.194352 87.516625 
L 186.19763 89.173453 
L 191.200909 90.420387 
L 196.087832 92.143105 
L 200.974755 93.341381 
L 205.978033 94.337828 
L 210.981312 93.304473 
L 215.868235 89.756085 
L 220.871514 90.341143 
L 225.874792 97.841767 
L 230.761715 112.053766 
L 235.764994 134.09178 
L 240.768272 164.474403 
" clip-path="url(#pc82b5c91ce)" style="fill: none; stroke: #1f77b4; stroke-opacity: 0.2; stroke-width: 1.5; stroke-linecap: square"/>
   </g>
   <g id="line2d_10">
    <path d="M 92.066182 62.095084 
L 96.953105 63.498895 
L 101.840028 64.902706 
L 106.843307 66.339942 
L 111.846585 67.777177 
L 116.733508 69.180988 
L 121.736787 70.618223 
L 126.740065 72.055459 
L 131.626988 73.45927 
L 136.630267 74.896505 
L 141.633545 76.33374 
L 146.520468 77.737552 
L 151.407392 79.141363 
L 156.41067 80.578598 
L 161.413949 82.015833 
L 166.300872 83.419645 
L 171.30415 84.85688 
L 176.307429 86.294115 
L 181.194352 87.697926 
L 186.19763 89.135161 
L 191.200909 90.572397 
L 196.087832 91.976208 
L 200.974755 93.380019 
L 205.978033 94.817254 
L 210.981312 96.25449 
L 215.868235 97.658301 
L 220.871514 99.095536 
L 225.874792 100.532771 
L 230.761715 101.936583 
L 235.764994 103.373818 
L 240.768272 104.811053 
" clip-path="url(#pc82b5c91ce)" style="fill: none; stroke-dasharray: 1.5,2.475; stroke-dashoffset: 0; stroke: #1f77b4; stroke-width: 1.5"/>
   </g>
   <g id="line2d_11">
    <path d="M 76.125504 56.240855 
L 79.034387 57.871067 
L 81.94327 59.56177 
L 84.852153 61.2021 
L 87.761035 62.895431 
L 90.669918 64.538435 
L 93.695156 66.28793 
L 96.604039 67.90277 
L 99.512922 69.609991 
L 102.421805 71.3218 
L 105.330688 72.944671 
L 108.355926 74.698894 
L 111.264809 76.319439 
L 114.173691 78.053397 
L 117.082574 79.543858 
L 119.991457 81.305852 
L 123.016695 83.137144 
L 125.925578 84.869123 
L 128.834461 86.294689 
L 131.743344 88.064384 
L 134.652227 89.682201 
L 137.677465 91.537804 
L 140.586347 92.73504 
L 143.49523 93.054505 
L 146.404113 92.191975 
L 149.312996 91.937273 
L 152.338234 94.362802 
L 155.247117 101.685803 
L 158.156 113.530781 
L 161.064883 130.742452 
L 163.973765 154.400802 
" clip-path="url(#pc82b5c91ce)" style="fill: none; stroke: #ff7f0e; stroke-opacity: 0.2; stroke-width: 1.5; stroke-linecap: square"/>
   </g>
   <g id="line2d_12">
    <path d="M 76.125504 56.304495 
L 79.034387 57.969247 
L 81.94327 59.633998 
L 84.852153 61.298749 
L 87.761035 62.9635 
L 90.669918 64.628251 
L 93.695156 66.359593 
L 96.604039 68.024344 
L 99.512922 69.689095 
L 102.421805 71.353846 
L 105.330688 73.018598 
L 108.355926 74.749939 
L 111.264809 76.41469 
L 114.173691 78.079441 
L 117.082574 79.744192 
L 119.991457 81.408944 
L 123.016695 83.140285 
L 125.925578 84.805036 
L 128.834461 86.469787 
L 131.743344 88.134539 
L 134.652227 89.79929 
L 137.677465 91.530631 
L 140.586347 93.195382 
L 143.49523 94.860133 
L 146.404113 96.524885 
L 149.312996 98.189636 
L 152.338234 99.920977 
L 155.247117 101.585728 
L 158.156 103.25048 
L 161.064883 104.915231 
L 163.973765 106.579982 
" clip-path="url(#pc82b5c91ce)" style="fill: none; stroke-dasharray: 1.5,2.475; stroke-dashoffset: 0; stroke: #ff7f0e; stroke-width: 1.5"/>
   </g>
   <g id="line2d_13">
    <path d="M 68.096987 50.45845 
L 69.842317 52.448252 
L 71.587647 54.396995 
L 73.332977 56.412257 
L 75.194662 58.531512 
L 76.939991 60.486264 
L 78.685321 62.488528 
L 80.430651 64.480887 
L 82.17598 66.430537 
L 84.037665 68.518328 
L 85.782995 70.576054 
L 87.528325 72.504984 
L 89.273654 74.483316 
L 91.018984 76.491737 
L 92.880669 78.613986 
L 94.625999 80.689576 
L 96.371329 82.593282 
L 98.116658 84.512875 
L 99.861988 86.555088 
L 101.723673 88.72906 
L 103.469003 90.646327 
L 105.214332 91.351794 
L 106.959662 92.326731 
L 108.704992 92.761692 
L 110.566677 95.209762 
L 112.312006 98.545879 
L 114.057336 104.718066 
L 115.802666 112.901349 
L 117.547995 123.678435 
L 119.409681 136.405335 
L 121.15501 149.08329 
" clip-path="url(#pc82b5c91ce)" style="fill: none; stroke: #2ca02c; stroke-opacity: 0.2; stroke-width: 1.5; stroke-linecap: square"/>
   </g>
   <g id="line2d_14">
    <path d="M 68.096987 50.60761 
L 69.842317 52.590061 
L 71.587647 54.572512 
L 73.332977 56.554964 
L 75.194662 58.669578 
L 76.939991 60.652029 
L 78.685321 62.634481 
L 80.430651 64.616932 
L 82.17598 66.599383 
L 84.037665 68.713998 
L 85.782995 70.696449 
L 87.528325 72.6789 
L 89.273654 74.661351 
L 91.018984 76.643803 
L 92.880669 78.758417 
L 94.625999 80.740868 
L 96.371329 82.72332 
L 98.116658 84.705771 
L 99.861988 86.688222 
L 101.723673 88.802837 
L 103.469003 90.785288 
L 105.214332 92.767739 
L 106.959662 94.75019 
L 108.704992 96.732642 
L 110.566677 98.847256 
L 112.312006 100.829708 
L 114.057336 102.812159 
L 115.802666 104.79461 
L 117.547995 106.777061 
L 119.409681 108.891676 
L 121.15501 110.874127 
" clip-path="url(#pc82b5c91ce)" style="fill: none; stroke-dasharray: 1.5,2.475; stroke-dashoffset: 0; stroke: #2ca02c; stroke-width: 1.5"/>
   </g>
   <g id="line2d_15">
    <path d="M 64.024551 44.767558 
L 64.955394 46.813067 
L 66.002592 49.150178 
L 67.04979 51.498658 
L 68.096987 53.846237 
L 69.144185 56.249679 
L 70.191383 58.514237 
L 71.238581 60.938566 
L 72.285779 63.222256 
L 73.332977 65.502521 
L 74.380174 67.873621 
L 75.427372 70.191289 
L 76.47457 72.787738 
L 77.521768 75.024435 
L 78.568966 77.072227 
L 79.616163 79.656901 
L 80.547006 81.791825 
L 81.594204 83.840633 
L 82.641402 86.472541 
L 83.688599 88.513451 
L 84.735797 90.556181 
L 85.782995 91.691888 
L 86.830193 93.284457 
L 87.877391 96.3143 
L 88.924588 99.295477 
L 89.971786 103.532471 
L 91.018984 110.845702 
L 92.066182 117.121288 
L 93.11338 126.413934 
L 94.160578 142.710089 
L 95.207775 144.276221 
" clip-path="url(#pc82b5c91ce)" style="fill: none; stroke: #d62728; stroke-opacity: 0.2; stroke-width: 1.5; stroke-linecap: square"/>
   </g>
   <g id="line2d_16">
    <path d="M 64.024551 45.02633 
L 64.955394 47.109378 
L 66.002592 49.452808 
L 67.04979 51.796237 
L 68.096987 54.139667 
L 69.144185 56.483096 
L 70.191383 58.826526 
L 71.238581 61.169956 
L 72.285779 63.513385 
L 73.332977 65.856815 
L 74.380174 68.200244 
L 75.427372 70.543674 
L 76.47457 72.887103 
L 77.521768 75.230533 
L 78.568966 77.573962 
L 79.616163 79.917392 
L 80.547006 82.00044 
L 81.594204 84.34387 
L 82.641402 86.687299 
L 83.688599 89.030729 
L 84.735797 91.374158 
L 85.782995 93.717588 
L 86.830193 96.061017 
L 87.877391 98.404447 
L 88.924588 100.747876 
L 89.971786 103.091306 
L 91.018984 105.434735 
L 92.066182 107.778165 
L 93.11338 110.121595 
L 94.160578 112.465024 
L 95.207775 114.808454 
" clip-path="url(#pc82b5c91ce)" style="fill: none; stroke-dasharray: 1.5,2.475; stroke-dashoffset: 0; stroke: #d62728; stroke-width: 1.5"/>
   </g>
   <g id="line2d_17">
    <path d="M 61.930156 38.997291 
L 62.511932 41.536777 
L 63.210064 44.564416 
L 63.791841 47.050912 
L 64.373617 49.600098 
L 65.071749 52.691435 
L 65.769881 55.673595 
L 66.351658 58.255369 
L 66.933434 60.693622 
L 67.631566 63.749321 
L 68.329698 66.928382 
L 68.911475 69.257904 
L 69.493251 71.965765 
L 70.191383 74.858573 
L 70.889515 77.834288 
L 71.471292 80.457052 
L 72.053068 82.908423 
L 72.7512 85.914309 
L 73.332977 88.163834 
L 73.914753 89.92983 
L 74.612885 93.762771 
L 75.311017 96.510276 
L 75.892793 97.489051 
L 76.47457 103.296307 
L 77.172702 108.287321 
L 77.870834 113.654558 
L 78.45261 119.939077 
L 79.034387 122.466577 
L 79.732519 141.805048 
L 80.430651 147.759144 
L 81.012427 144.276221 
" clip-path="url(#pc82b5c91ce)" style="fill: none; stroke: #9467bd; stroke-opacity: 0.2; stroke-width: 1.5; stroke-linecap: square"/>
   </g>
   <g id="line2d_18">
    <path d="M 61.930156 39.533447 
L 62.511932 42.062822 
L 63.210064 45.098071 
L 63.791841 47.627445 
L 64.373617 50.156819 
L 65.071749 53.192068 
L 65.769881 56.227317 
L 66.351658 58.756692 
L 66.933434 61.286066 
L 67.631566 64.321315 
L 68.329698 67.356564 
L 68.911475 69.885938 
L 69.493251 72.415313 
L 70.191383 75.450562 
L 70.889515 78.485811 
L 71.471292 81.015185 
L 72.053068 83.544559 
L 72.7512 86.579808 
L 73.332977 89.109183 
L 73.914753 91.638557 
L 74.612885 94.673806 
L 75.311017 97.709055 
L 75.892793 100.238429 
L 76.47457 102.767804 
L 77.172702 105.803053 
L 77.870834 108.838302 
L 78.45261 111.367676 
L 79.034387 113.89705 
L 79.732519 116.932299 
L 80.430651 119.967549 
L 81.012427 122.496923 
" clip-path="url(#pc82b5c91ce)" style="fill: none; stroke-dasharray: 1.5,2.475; stroke-dashoffset: 0; stroke: #9467bd; stroke-width: 1.5"/>
   </g>
   <g id="line2d_19">
    <path d="M 60.882958 33.481753 
L 61.232024 36.28425 
L 61.58109 39.207008 
L 61.930156 42.047002 
L 62.279222 44.94326 
L 62.628288 47.841248 
L 62.977354 50.760171 
L 63.32642 53.563989 
L 63.675486 56.409931 
L 64.024551 59.27308 
L 64.373617 62.207277 
L 64.722683 65.187443 
L 65.071749 68.020006 
L 65.420815 70.618344 
L 65.886236 74.618432 
L 66.235302 77.614243 
L 66.584368 80.10252 
L 66.933434 83.575664 
L 67.2825 85.627267 
L 67.631566 89.24148 
L 67.980632 91.534956 
L 68.329698 94.006129 
L 68.678764 96.091172 
L 69.02783 101.00908 
L 69.376896 104.298962 
L 69.725962 110.335258 
L 70.075028 111.577203 
L 70.424094 117.724339 
L 70.77316 125.402185 
L 71.238581 128.885107 
L 71.587647 128.885107 
" clip-path="url(#pc82b5c91ce)" style="fill: none; stroke: #8c564b; stroke-opacity: 0.2; stroke-width: 1.5; stroke-linecap: square"/>
   </g>
   <g id="line2d_20">
    <path d="M 60.882958 34.431038 
L 61.232024 37.306224 
L 61.58109 40.18141 
L 61.930156 43.056596 
L 62.279222 45.931782 
L 62.628288 48.806968 
L 62.977354 51.682154 
L 63.32642 54.55734 
L 63.675486 57.432526 
L 64.024551 60.307712 
L 64.373617 63.182898 
L 64.722683 66.058084 
L 65.071749 68.93327 
L 65.420815 71.808456 
L 65.886236 75.642037 
L 66.235302 78.517223 
L 66.584368 81.392409 
L 66.933434 84.267595 
L 67.2825 87.142781 
L 67.631566 90.017967 
L 67.980632 92.893153 
L 68.329698 95.768339 
L 68.678764 98.643525 
L 69.02783 101.518711 
L 69.376896 104.393897 
L 69.725962 107.269083 
L 70.075028 110.144269 
L 70.424094 113.019455 
L 70.77316 115.894641 
L 71.238581 119.728222 
L 71.587647 122.603408 
" clip-path="url(#pc82b5c91ce)" style="fill: none; stroke-dasharray: 1.5,2.475; stroke-dashoffset: 0; stroke: #8c564b; stroke-width: 1.5"/>
   </g>
   <g id="line2d_21">
    <path d="M 60.417537 29.087472 
L 60.650247 32.56421 
L 60.882958 36.059409 
L 61.115669 39.506045 
L 61.348379 43.0583 
L 61.58109 46.494744 
L 61.813801 49.941754 
L 62.046511 53.398568 
L 62.279222 56.98655 
L 62.511932 60.398121 
L 62.744643 63.910206 
L 62.977354 67.544478 
L 63.210064 70.800261 
L 63.442775 74.286497 
L 63.675486 77.889561 
L 63.908196 81.711808 
L 64.140907 84.904698 
L 64.373617 88.508243 
L 64.606328 91.066625 
L 64.839039 96.059764 
L 65.071749 97.867524 
L 65.30446 104.21754 
L 65.537171 109.698675 
L 65.769881 110.335258 
L 66.002592 114.505743 
L 66.235302 113.493994 
L 66.468013 124.497144 
L 66.700724 138.322126 
L 66.933434 138.322126 
L 67.166145 132.36803 
L 67.398856 138.322126 
" clip-path="url(#pc82b5c91ce)" style="fill: none; stroke: #e377c2; stroke-opacity: 0.2; stroke-width: 1.5; stroke-linecap: square"/>
   </g>
   <g id="line2d_22">
    <path d="M 60.417537 30.826141 
L 60.650247 34.309063 
L 60.882958 37.791986 
L 61.115669 41.274909 
L 61.348379 44.757831 
L 61.58109 48.240754 
L 61.813801 51.723677 
L 62.046511 55.206599 
L 62.279222 58.689522 
L 62.511932 62.172445 
L 62.744643 65.655367 
L 62.977354 69.13829 
L 63.210064 72.621212 
L 63.442775 76.104135 
L 63.675486 79.587058 
L 63.908196 83.06998 
L 64.140907 86.552903 
L 64.373617 90.035826 
L 64.606328 93.518748 
L 64.839039 97.001671 
L 65.071749 100.484594 
L 65.30446 103.967516 
L 65.537171 107.450439 
L 65.769881 110.933362 
L 66.002592 114.416284 
L 66.235302 117.899207 
L 66.468013 121.382129 
L 66.700724 124.865052 
L 66.933434 128.347975 
L 67.166145 131.830897 
L 67.398856 135.31382 
" clip-path="url(#pc82b5c91ce)" style="fill: none; stroke-dasharray: 1.5,2.475; stroke-dashoffset: 0; stroke: #e377c2; stroke-width: 1.5"/>
   </g>
   <g id="patch_3">
    <path d="M 51.4 171.24375 
L 51.4 22.318125 
" style="fill: none; stroke: #000000; stroke-width: 0.8; stroke-linejoin: miter; stroke-linecap: square"/>
   </g>
   <g id="patch_4">
    <path d="M 249.785809 171.24375 
L 249.785809 22.318125 
" style="fill: none; stroke: #000000; stroke-width: 0.8; stroke-linejoin: miter; stroke-linecap: square"/>
   </g>
   <g id="patch_5">
    <path d="M 51.4 171.24375 
L 249.785809 171.24375 
" style="fill: none; stroke: #000000; stroke-width: 0.8; stroke-linejoin: miter; stroke-linecap: square"/>
   </g>
   <g id="patch_6">
    <path d="M 51.4 22.318125 
L 249.785809 22.318125 
" style="fill: none; stroke: #000000; stroke-width: 0.8; stroke-linejoin: miter; stroke-linecap: square"/>
   </g>
   <g id="text_11">
    <!-- (A) -->
    <g transform="translate(141.806654 16.318125) scale(0.12 -0.12)">
     <defs>
      <path id="DejaVuSans-41" d="M 2188 4044 
L 1331 1722 
L 3047 1722 
L 2188 4044 
z
M 1831 4666 
L 2547 4666 
L 4325 0 
L 3669 0 
L 3244 1197 
L 1141 1197 
L 716 0 
L 50 0 
L 1831 4666 
z
" transform="scale(0.015625)"/>
     </defs>
     <use xlink:href="#DejaVuSans-28"/>
     <use xlink:href="#DejaVuSans-41" x="39.013672"/>
     <use xlink:href="#DejaVuSans-29" x="107.421875"/>
    </g>
   </g>
  </g>
  <g id="axes_2">
   <g id="patch_7">
    <path d="M 309.924853 171.24375 
L 379.048235 171.24375 
L 379.048235 22.318125 
L 309.924853 22.318125 
z
" style="fill: #ffffff"/>
   </g>
   <g id="line2d_23">
    <path d="M 309.924853 21.935336 
L 310.623069 23.431572 
L 311.321285 24.927808 
L 312.019501 26.424044 
L 312.717717 27.92028 
L 313.415933 29.416516 
L 314.114149 30.912752 
L 314.812365 32.408988 
L 315.510581 33.905224 
L 316.208797 35.40146 
L 316.907013 36.897696 
L 317.605229 38.393932 
L 318.303445 39.890168 
L 319.001661 41.386404 
L 319.699877 42.882641 
L 320.398093 44.378877 
L 321.096309 45.875113 
L 321.794525 47.371349 
L 322.492741 48.867585 
L 323.190957 50.363821 
L 323.889173 51.860057 
L 324.587389 53.356293 
L 325.285605 54.852529 
L 325.983821 56.348765 
L 326.682037 57.845001 
L 327.380253 59.341237 
L 328.078469 60.837473 
L 328.776684 62.333709 
L 329.4749 63.829945 
L 330.173116 65.326181 
L 330.871332 66.822417 
L 331.569548 68.318653 
L 332.267764 69.814889 
L 332.96598 71.311125 
L 333.664196 72.807361 
L 334.362412 74.303597 
L 335.060628 75.799833 
L 335.758844 77.296069 
L 336.45706 78.792305 
L 337.155276 80.288541 
L 337.853492 81.784777 
L 338.551708 83.281013 
L 339.249924 84.777249 
L 339.94814 86.273485 
L 340.646356 87.769721 
L 341.344572 89.265957 
L 342.042788 90.762193 
L 342.741004 92.258429 
L 343.43922 93.754665 
L 344.137436 95.250901 
L 344.835652 96.747137 
L 345.533868 98.243373 
L 346.232084 99.739609 
L 346.9303 101.235845 
L 347.628516 102.732081 
L 348.326732 104.228317 
L 349.024948 105.724553 
L 349.723164 107.22079 
L 350.42138 108.717026 
L 351.119596 110.213262 
L 351.817812 111.709498 
L 352.516028 113.205734 
L 353.214244 114.70197 
L 353.91246 116.198206 
L 354.610676 117.694442 
L 355.308892 119.190678 
L 356.007108 120.686914 
L 356.705324 122.18315 
L 357.40354 123.679386 
L 358.101756 125.175622 
L 358.799972 126.671858 
L 359.498188 128.168094 
L 360.196404 129.66433 
L 360.89462 131.160566 
L 361.592836 132.656802 
L 362.291052 134.153038 
L 362.989268 135.649274 
L 363.687484 137.14551 
L 364.3857 138.641746 
L 365.083916 140.137982 
L 365.782132 141.634218 
L 366.480348 143.130454 
L 367.178564 144.62669 
L 367.87678 146.122926 
L 368.574996 147.619162 
L 369.273212 149.115398 
L 369.971428 150.611634 
L 370.669643 152.10787 
L 371.367859 153.604106 
L 372.066075 155.100342 
L 372.764291 156.596578 
L 373.462507 158.092814 
L 374.160723 159.58905 
L 374.858939 161.085286 
L 375.557155 162.581522 
L 376.255371 164.077758 
L 376.953587 165.573994 
L 377.651803 167.07023 
L 378.350019 168.566466 
L 379.048235 170.062702 
" clip-path="url(#p77e09608fb)" style="fill: none; stroke: #000000; stroke-opacity: 0.2; stroke-width: 1.5; stroke-linecap: square"/>
   </g>
   <g id="line2d_24">
    <path clip-path="url(#p77e09608fb)" style="fill: none; stroke: #000000; stroke-opacity: 0.2; stroke-width: 1.5; stroke-linecap: square"/>
   </g>
   <g id="PathCollection_8">
    <defs>
     <path id="mb81d299271" d="M -1.936492 1.936492 
L 1.936492 -1.936492 
M -1.936492 -1.936492 
L 1.936492 1.936492 
" style="stroke: #1f77b4"/>
    </defs>
    <g clip-path="url(#p77e09608fb)">
     <use xlink:href="#mb81d299271" x="317.405067" y="37.689835" style="fill: #1f77b4; stroke: #1f77b4"/>
     <use xlink:href="#mb81d299271" x="320.745514" y="45.02842" style="fill: #1f77b4; stroke: #1f77b4"/>
     <use xlink:href="#mb81d299271" x="324.08596" y="51.953646" style="fill: #1f77b4; stroke: #1f77b4"/>
     <use xlink:href="#mb81d299271" x="327.505941" y="59.364539" style="fill: #1f77b4; stroke: #1f77b4"/>
     <use xlink:href="#mb81d299271" x="330.925922" y="66.726622" style="fill: #1f77b4; stroke: #1f77b4"/>
     <use xlink:href="#mb81d299271" x="334.266368" y="73.947542" style="fill: #1f77b4; stroke: #1f77b4"/>
     <use xlink:href="#mb81d299271" x="337.686349" y="81.298854" style="fill: #1f77b4; stroke: #1f77b4"/>
     <use xlink:href="#mb81d299271" x="341.10633" y="88.52713" style="fill: #1f77b4; stroke: #1f77b4"/>
     <use xlink:href="#mb81d299271" x="344.446777" y="95.649748" style="fill: #1f77b4; stroke: #1f77b4"/>
     <use xlink:href="#mb81d299271" x="347.866758" y="103.122737" style="fill: #1f77b4; stroke: #1f77b4"/>
     <use xlink:href="#mb81d299271" x="351.286739" y="109.962697" style="fill: #1f77b4; stroke: #1f77b4"/>
     <use xlink:href="#mb81d299271" x="354.627185" y="117.718851" style="fill: #1f77b4; stroke: #1f77b4"/>
     <use xlink:href="#mb81d299271" x="357.967632" y="124.81167" style="fill: #1f77b4; stroke: #1f77b4"/>
     <use xlink:href="#mb81d299271" x="361.387613" y="132.129813" style="fill: #1f77b4; stroke: #1f77b4"/>
     <use xlink:href="#mb81d299271" x="364.807594" y="138.968961" style="fill: #1f77b4; stroke: #1f77b4"/>
     <use xlink:href="#mb81d299271" x="368.14804" y="146.570056" style="fill: #1f77b4; stroke: #1f77b4"/>
     <use xlink:href="#mb81d299271" x="371.568021" y="154.150143" style="fill: #1f77b4; stroke: #1f77b4"/>
    </g>
   </g>
   <g id="PathCollection_9">
    <g clip-path="url(#p77e09608fb)"/>
   </g>
   <g id="PathCollection_10">
    <g clip-path="url(#p77e09608fb)"/>
   </g>
   <g id="PathCollection_11">
    <g clip-path="url(#p77e09608fb)"/>
   </g>
   <g id="PathCollection_12">
    <g clip-path="url(#p77e09608fb)"/>
   </g>
   <g id="PathCollection_13">
    <g clip-path="url(#p77e09608fb)"/>
   </g>
   <g id="PathCollection_14">
    <g clip-path="url(#p77e09608fb)"/>
   </g>
   <g id="PathCollection_15">
    <g clip-path="url(#p77e09608fb)"/>
   </g>
   <g id="matplotlib.axis_3">
    <g id="xtick_6">
     <g id="line2d_25">
      <g>
       <use xlink:href="#m8420c9d96a" x="335.141247" y="171.24375" style="stroke: #000000; stroke-width: 0.8"/>
      </g>
     </g>
     <g id="text_12">
      <!-- 250 -->
      <g transform="translate(325.597497 185.842187) scale(0.1 -0.1)">
       <defs>
        <path id="DejaVuSans-35" d="M 691 4666 
L 3169 4666 
L 3169 4134 
L 1269 4134 
L 1269 2991 
Q 1406 3038 1543 3061 
Q 1681 3084 1819 3084 
Q 2600 3084 3056 2656 
Q 3513 2228 3513 1497 
Q 3513 744 3044 326 
Q 2575 -91 1722 -91 
Q 1428 -91 1123 -41 
Q 819 9 494 109 
L 494 744 
Q 775 591 1075 516 
Q 1375 441 1709 441 
Q 2250 441 2565 725 
Q 2881 1009 2881 1497 
Q 2881 1984 2565 2268 
Q 2250 2553 1709 2553 
Q 1456 2553 1204 2497 
Q 953 2441 691 2322 
L 691 4666 
z
" transform="scale(0.015625)"/>
       </defs>
       <use xlink:href="#DejaVuSans-32"/>
       <use xlink:href="#DejaVuSans-35" x="63.623047"/>
       <use xlink:href="#DejaVuSans-30" x="127.246094"/>
      </g>
     </g>
    </g>
    <g id="xtick_7">
     <g id="line2d_26">
      <g>
       <use xlink:href="#m8420c9d96a" x="374.908468" y="171.24375" style="stroke: #000000; stroke-width: 0.8"/>
      </g>
     </g>
     <g id="text_13">
      <!-- 500 -->
      <g transform="translate(365.364718 185.842187) scale(0.1 -0.1)">
       <use xlink:href="#DejaVuSans-35"/>
       <use xlink:href="#DejaVuSans-30" x="63.623047"/>
       <use xlink:href="#DejaVuSans-30" x="127.246094"/>
      </g>
     </g>
    </g>
    <g id="text_14">
     <!-- $k$ -->
     <g transform="translate(341.586544 199.520312) scale(0.1 -0.1)">
      <use xlink:href="#DejaVuSans-Oblique-6b" transform="translate(0 0.015625)"/>
     </g>
    </g>
   </g>
   <g id="matplotlib.axis_4">
    <g id="ytick_4">
     <g id="line2d_27">
      <g>
       <use xlink:href="#mc3900e660f" x="309.924853" y="124.090326" style="stroke: #000000; stroke-width: 0.8"/>
      </g>
     </g>
     <g id="text_15">
      <!-- $\mathdefault{10^{-3}}$ -->
      <g transform="translate(279.424853 127.889544) scale(0.1 -0.1)">
       <defs>
        <path id="DejaVuSans-33" d="M 2597 2516 
Q 3050 2419 3304 2112 
Q 3559 1806 3559 1356 
Q 3559 666 3084 287 
Q 2609 -91 1734 -91 
Q 1441 -91 1130 -33 
Q 819 25 488 141 
L 488 750 
Q 750 597 1062 519 
Q 1375 441 1716 441 
Q 2309 441 2620 675 
Q 2931 909 2931 1356 
Q 2931 1769 2642 2001 
Q 2353 2234 1838 2234 
L 1294 2234 
L 1294 2753 
L 1863 2753 
Q 2328 2753 2575 2939 
Q 2822 3125 2822 3475 
Q 2822 3834 2567 4026 
Q 2313 4219 1838 4219 
Q 1578 4219 1281 4162 
Q 984 4106 628 3988 
L 628 4550 
Q 988 4650 1302 4700 
Q 1616 4750 1894 4750 
Q 2613 4750 3031 4423 
Q 3450 4097 3450 3541 
Q 3450 3153 3228 2886 
Q 3006 2619 2597 2516 
z
" transform="scale(0.015625)"/>
       </defs>
       <use xlink:href="#DejaVuSans-31" transform="translate(0 0.765625)"/>
       <use xlink:href="#DejaVuSans-30" transform="translate(63.623047 0.765625)"/>
       <use xlink:href="#DejaVuSans-2212" transform="translate(128.203125 39.046875) scale(0.7)"/>
       <use xlink:href="#DejaVuSans-33" transform="translate(186.855469 39.046875) scale(0.7)"/>
      </g>
     </g>
    </g>
    <g id="ytick_5">
     <g id="line2d_28">
      <g>
       <use xlink:href="#mc3900e660f" x="309.924853" y="23.231903" style="stroke: #000000; stroke-width: 0.8"/>
      </g>
     </g>
     <g id="text_16">
      <!-- $\mathdefault{10^{-2}}$ -->
      <g transform="translate(279.424853 27.031122) scale(0.1 -0.1)">
       <use xlink:href="#DejaVuSans-31" transform="translate(0 0.765625)"/>
       <use xlink:href="#DejaVuSans-30" transform="translate(63.623047 0.765625)"/>
       <use xlink:href="#DejaVuSans-2212" transform="translate(128.203125 39.046875) scale(0.7)"/>
       <use xlink:href="#DejaVuSans-32" transform="translate(186.855469 39.046875) scale(0.7)"/>
      </g>
     </g>
    </g>
    <g id="ytick_6">
     <g id="line2d_29">
      <defs>
       <path id="m9142d358e5" d="M 0 0 
L -2 0 
" style="stroke: #000000; stroke-width: 0.6"/>
      </defs>
      <g>
       <use xlink:href="#m9142d358e5" x="309.924853" y="164.225927" style="stroke: #000000; stroke-width: 0.6"/>
      </g>
     </g>
    </g>
    <g id="ytick_7">
     <g id="line2d_30">
      <g>
       <use xlink:href="#m9142d358e5" x="309.924853" y="154.451736" style="stroke: #000000; stroke-width: 0.6"/>
      </g>
     </g>
    </g>
    <g id="ytick_8">
     <g id="line2d_31">
      <g>
       <use xlink:href="#m9142d358e5" x="309.924853" y="146.465641" style="stroke: #000000; stroke-width: 0.6"/>
      </g>
     </g>
    </g>
    <g id="ytick_9">
     <g id="line2d_32">
      <g>
       <use xlink:href="#m9142d358e5" x="309.924853" y="139.713493" style="stroke: #000000; stroke-width: 0.6"/>
      </g>
     </g>
    </g>
    <g id="ytick_10">
     <g id="line2d_33">
      <g>
       <use xlink:href="#m9142d358e5" x="309.924853" y="133.864517" style="stroke: #000000; stroke-width: 0.6"/>
      </g>
     </g>
    </g>
    <g id="ytick_11">
     <g id="line2d_34">
      <g>
       <use xlink:href="#m9142d358e5" x="309.924853" y="128.705354" style="stroke: #000000; stroke-width: 0.6"/>
      </g>
     </g>
    </g>
    <g id="ytick_12">
     <g id="line2d_35">
      <g>
       <use xlink:href="#m9142d358e5" x="309.924853" y="93.728915" style="stroke: #000000; stroke-width: 0.6"/>
      </g>
     </g>
    </g>
    <g id="ytick_13">
     <g id="line2d_36">
      <g>
       <use xlink:href="#m9142d358e5" x="309.924853" y="75.968629" style="stroke: #000000; stroke-width: 0.6"/>
      </g>
     </g>
    </g>
    <g id="ytick_14">
     <g id="line2d_37">
      <g>
       <use xlink:href="#m9142d358e5" x="309.924853" y="63.367505" style="stroke: #000000; stroke-width: 0.6"/>
      </g>
     </g>
    </g>
    <g id="ytick_15">
     <g id="line2d_38">
      <g>
       <use xlink:href="#m9142d358e5" x="309.924853" y="53.593314" style="stroke: #000000; stroke-width: 0.6"/>
      </g>
     </g>
    </g>
    <g id="ytick_16">
     <g id="line2d_39">
      <g>
       <use xlink:href="#m9142d358e5" x="309.924853" y="45.607218" style="stroke: #000000; stroke-width: 0.6"/>
      </g>
     </g>
    </g>
    <g id="ytick_17">
     <g id="line2d_40">
      <g>
       <use xlink:href="#m9142d358e5" x="309.924853" y="38.855071" style="stroke: #000000; stroke-width: 0.6"/>
      </g>
     </g>
    </g>
    <g id="ytick_18">
     <g id="line2d_41">
      <g>
       <use xlink:href="#m9142d358e5" x="309.924853" y="33.006094" style="stroke: #000000; stroke-width: 0.6"/>
      </g>
     </g>
    </g>
    <g id="ytick_19">
     <g id="line2d_42">
      <g>
       <use xlink:href="#m9142d358e5" x="309.924853" y="27.846932" style="stroke: #000000; stroke-width: 0.6"/>
      </g>
     </g>
    </g>
    <g id="text_17">
     <!-- $p(k)$ -->
     <g transform="translate(273.324853 106.780937) rotate(-90) scale(0.1 -0.1)">
      <use xlink:href="#DejaVuSans-Oblique-70" transform="translate(0 0.015625)"/>
      <use xlink:href="#DejaVuSans-28" transform="translate(63.476562 0.015625)"/>
      <use xlink:href="#DejaVuSans-Oblique-6b" transform="translate(102.490234 0.015625)"/>
      <use xlink:href="#DejaVuSans-29" transform="translate(160.400391 0.015625)"/>
     </g>
    </g>
   </g>
   <g id="patch_8">
    <path d="M 309.924853 171.24375 
L 309.924853 22.318125 
" style="fill: none; stroke: #000000; stroke-width: 0.8; stroke-linejoin: miter; stroke-linecap: square"/>
   </g>
   <g id="patch_9">
    <path d="M 379.048235 171.24375 
L 379.048235 22.318125 
" style="fill: none; stroke: #000000; stroke-width: 0.8; stroke-linejoin: miter; stroke-linecap: square"/>
   </g>
   <g id="patch_10">
    <path d="M 309.924853 171.24375 
L 379.048235 171.24375 
" style="fill: none; stroke: #000000; stroke-width: 0.8; stroke-linejoin: miter; stroke-linecap: square"/>
   </g>
   <g id="patch_11">
    <path d="M 309.924853 22.318125 
L 379.048235 22.318125 
" style="fill: none; stroke: #000000; stroke-width: 0.8; stroke-linejoin: miter; stroke-linecap: square"/>
   </g>
   <g id="text_18">
    <!-- (B) -->
    <g transform="translate(335.688107 16.318125) scale(0.12 -0.12)">
     <defs>
      <path id="DejaVuSans-42" d="M 1259 2228 
L 1259 519 
L 2272 519 
Q 2781 519 3026 730 
Q 3272 941 3272 1375 
Q 3272 1813 3026 2020 
Q 2781 2228 2272 2228 
L 1259 2228 
z
M 1259 4147 
L 1259 2741 
L 2194 2741 
Q 2656 2741 2882 2914 
Q 3109 3088 3109 3444 
Q 3109 3797 2882 3972 
Q 2656 4147 2194 4147 
L 1259 4147 
z
M 628 4666 
L 2241 4666 
Q 2963 4666 3353 4366 
Q 3744 4066 3744 3513 
Q 3744 3084 3544 2831 
Q 3344 2578 2956 2516 
Q 3422 2416 3680 2098 
Q 3938 1781 3938 1306 
Q 3938 681 3513 340 
Q 3088 0 2303 0 
L 628 0 
L 628 4666 
z
" transform="scale(0.015625)"/>
     </defs>
     <use xlink:href="#DejaVuSans-28"/>
     <use xlink:href="#DejaVuSans-42" x="39.013672"/>
     <use xlink:href="#DejaVuSans-29" x="107.617188"/>
    </g>
   </g>
   <g id="legend_1">
    <g id="patch_12">
     <path d="M 384.504404 157.443125 
L 442.604404 157.443125 
Q 444.604404 157.443125 444.604404 155.443125 
L 444.604404 24.318125 
Q 444.604404 22.318125 442.604404 22.318125 
L 384.504404 22.318125 
Q 382.504404 22.318125 382.504404 24.318125 
L 382.504404 155.443125 
Q 382.504404 157.443125 384.504404 157.443125 
z
" style="fill: #ffffff; opacity: 0.8; stroke: #cccccc; stroke-linejoin: miter"/>
    </g>
    <g id="text_19">
     <!-- $m$ -->
     <g transform="translate(408.654404 33.916562) scale(0.1 -0.1)">
      <defs>
       <path id="DejaVuSans-Oblique-6d" d="M 5747 2113 
L 5338 0 
L 4763 0 
L 5166 2094 
Q 5191 2228 5203 2325 
Q 5216 2422 5216 2491 
Q 5216 2772 5059 2928 
Q 4903 3084 4622 3084 
Q 4203 3084 3875 2770 
Q 3547 2456 3450 1953 
L 3066 0 
L 2491 0 
L 2900 2094 
Q 2925 2209 2937 2307 
Q 2950 2406 2950 2484 
Q 2950 2769 2794 2926 
Q 2638 3084 2363 3084 
Q 1938 3084 1609 2770 
Q 1281 2456 1184 1953 
L 800 0 
L 225 0 
L 909 3500 
L 1484 3500 
L 1375 2956 
Q 1609 3263 1923 3423 
Q 2238 3584 2597 3584 
Q 2978 3584 3223 3384 
Q 3469 3184 3519 2828 
Q 3781 3197 4126 3390 
Q 4472 3584 4856 3584 
Q 5306 3584 5551 3325 
Q 5797 3066 5797 2591 
Q 5797 2488 5784 2364 
Q 5772 2241 5747 2113 
z
" transform="scale(0.015625)"/>
      </defs>
      <use xlink:href="#DejaVuSans-Oblique-6d"/>
     </g>
    </g>
    <g id="PathCollection_16">
     <defs>
      <path id="ma05e5db249" d="M -2.236068 2.236068 
L 2.236068 -2.236068 
M -2.236068 -2.236068 
L 2.236068 2.236068 
" style="stroke: #1f77b4"/>
     </defs>
     <g>
      <use xlink:href="#ma05e5db249" x="396.504404" y="45.969687" style="fill: #1f77b4; stroke: #1f77b4"/>
     </g>
    </g>
    <g id="text_20">
     <!-- 128 -->
     <g transform="translate(414.504404 48.594687) scale(0.1 -0.1)">
      <use xlink:href="#DejaVuSans-31"/>
      <use xlink:href="#DejaVuSans-32" x="63.623047"/>
      <use xlink:href="#DejaVuSans-38" x="127.246094"/>
     </g>
    </g>
    <g id="PathCollection_17">
     <defs>
      <path id="m5fdaa09999" d="M -2.236068 2.236068 
L 2.236068 -2.236068 
M -2.236068 -2.236068 
L 2.236068 2.236068 
" style="stroke: #ff7f0e"/>
     </defs>
     <g>
      <use xlink:href="#m5fdaa09999" x="396.504404" y="60.647812" style="fill: #ff7f0e; stroke: #ff7f0e"/>
     </g>
    </g>
    <g id="text_21">
     <!-- 64 -->
     <g transform="translate(414.504404 63.272812) scale(0.1 -0.1)">
      <use xlink:href="#DejaVuSans-36"/>
      <use xlink:href="#DejaVuSans-34" x="63.623047"/>
     </g>
    </g>
    <g id="PathCollection_18">
     <defs>
      <path id="m326e6652ee" d="M -2.236068 2.236068 
L 2.236068 -2.236068 
M -2.236068 -2.236068 
L 2.236068 2.236068 
" style="stroke: #2ca02c"/>
     </defs>
     <g>
      <use xlink:href="#m326e6652ee" x="396.504404" y="75.325937" style="fill: #2ca02c; stroke: #2ca02c"/>
     </g>
    </g>
    <g id="text_22">
     <!-- 32 -->
     <g transform="translate(414.504404 77.950937) scale(0.1 -0.1)">
      <use xlink:href="#DejaVuSans-33"/>
      <use xlink:href="#DejaVuSans-32" x="63.623047"/>
     </g>
    </g>
    <g id="PathCollection_19">
     <defs>
      <path id="m197d7094ab" d="M -2.236068 2.236068 
L 2.236068 -2.236068 
M -2.236068 -2.236068 
L 2.236068 2.236068 
" style="stroke: #d62728"/>
     </defs>
     <g>
      <use xlink:href="#m197d7094ab" x="396.504404" y="90.004063" style="fill: #d62728; stroke: #d62728"/>
     </g>
    </g>
    <g id="text_23">
     <!-- 16 -->
     <g transform="translate(414.504404 92.629063) scale(0.1 -0.1)">
      <use xlink:href="#DejaVuSans-31"/>
      <use xlink:href="#DejaVuSans-36" x="63.623047"/>
     </g>
    </g>
    <g id="PathCollection_20">
     <defs>
      <path id="mab4818a68d" d="M -2.236068 2.236068 
L 2.236068 -2.236068 
M -2.236068 -2.236068 
L 2.236068 2.236068 
" style="stroke: #9467bd"/>
     </defs>
     <g>
      <use xlink:href="#mab4818a68d" x="396.504404" y="104.682187" style="fill: #9467bd; stroke: #9467bd"/>
     </g>
    </g>
    <g id="text_24">
     <!-- 8 -->
     <g transform="translate(414.504404 107.307187) scale(0.1 -0.1)">
      <use xlink:href="#DejaVuSans-38"/>
     </g>
    </g>
    <g id="PathCollection_21">
     <defs>
      <path id="mea76989cfc" d="M -2.236068 2.236068 
L 2.236068 -2.236068 
M -2.236068 -2.236068 
L 2.236068 2.236068 
" style="stroke: #8c564b"/>
     </defs>
     <g>
      <use xlink:href="#mea76989cfc" x="396.504404" y="119.360312" style="fill: #8c564b; stroke: #8c564b"/>
     </g>
    </g>
    <g id="text_25">
     <!-- 4 -->
     <g transform="translate(414.504404 121.985312) scale(0.1 -0.1)">
      <use xlink:href="#DejaVuSans-34"/>
     </g>
    </g>
    <g id="PathCollection_22">
     <defs>
      <path id="mf5599f0d1d" d="M -2.236068 2.236068 
L 2.236068 -2.236068 
M -2.236068 -2.236068 
L 2.236068 2.236068 
" style="stroke: #e377c2"/>
     </defs>
     <g>
      <use xlink:href="#mf5599f0d1d" x="396.504404" y="134.038437" style="fill: #e377c2; stroke: #e377c2"/>
     </g>
    </g>
    <g id="text_26">
     <!-- 2 -->
     <g transform="translate(414.504404 136.663437) scale(0.1 -0.1)">
      <use xlink:href="#DejaVuSans-32"/>
     </g>
    </g>
    <g id="line2d_43">
     <path d="M 386.504404 147.843125 
L 396.504404 147.843125 
L 406.504404 147.843125 
" style="fill: none; stroke: #000000; stroke-opacity: 0.2; stroke-width: 1.5; stroke-linecap: square"/>
    </g>
    <g id="text_27">
     <!-- $p_\infty(k)$ -->
     <g transform="translate(414.504404 151.343125) scale(0.1 -0.1)">
      <defs>
       <path id="DejaVuSans-221e" d="M 2916 1091 
Q 2819 1203 2666 1466 
Q 2456 1091 2272 925 
Q 2041 725 1681 725 
Q 1259 725 981 1041 
Q 688 1372 688 1919 
Q 688 2444 981 2800 
Q 1244 3116 1688 3116 
Q 1916 3116 2084 3022 
Q 2281 2919 2416 2741 
Q 2541 2581 2666 2366 
Q 2875 2741 3059 2906 
Q 3291 3106 3650 3106 
Q 4072 3106 4350 2791 
Q 4644 2459 4644 1913 
Q 4644 1388 4350 1031 
Q 4088 716 3644 716 
Q 3416 716 3247 809 
Q 3078 894 2916 1091 
z
M 1647 1134 
Q 2163 1134 2472 1884 
Q 2075 2703 1647 2703 
Q 1334 2703 1175 2478 
Q 1003 2238 1003 1919 
Q 1003 1569 1175 1353 
Q 1350 1134 1647 1134 
z
M 3684 2697 
Q 3219 2697 2859 1947 
Q 3253 1128 3684 1128 
Q 3997 1128 4156 1353 
Q 4328 1594 4328 1913 
Q 4328 2263 4156 2478 
Q 3981 2697 3684 2697 
z
" transform="scale(0.015625)"/>
      </defs>
      <use xlink:href="#DejaVuSans-Oblique-70" transform="translate(0 0.015625)"/>
      <use xlink:href="#DejaVuSans-221e" transform="translate(63.476562 -16.390625) scale(0.7)"/>
      <use xlink:href="#DejaVuSans-28" transform="translate(124.521484 0.015625)"/>
      <use xlink:href="#DejaVuSans-Oblique-6b" transform="translate(163.535156 0.015625)"/>
      <use xlink:href="#DejaVuSans-29" transform="translate(221.445312 0.015625)"/>
     </g>
    </g>
   </g>
  </g>
 </g>
 <defs>
  <clipPath id="pc82b5c91ce">
   <rect x="51.4" y="22.318125" width="198.385809" height="148.925625"/>
  </clipPath>
  <clipPath id="p77e09608fb">
   <rect x="309.924853" y="22.318125" width="69.123382" height="148.925625"/>
  </clipPath>
 </defs>
</svg>
